<?xml version="1.0" encoding="UTF-8"?>
<!DOCTYPE svg PUBLIC "-//W3C//DTD SVG 1.1//EN" "http://www.w3.org/Graphics/SVG/1.1/DTD/svg11.dtd">
<svg xmlns="http://www.w3.org/2000/svg" version="1.1" width="750px" height="350px" style="shape-rendering:geometricPrecision; text-rendering:geometricPrecision; image-rendering:optimizeQuality; fill-rule:evenodd; clip-rule:evenodd" xmlns:xlink="http://www.w3.org/1999/xlink">
<g><path style="opacity:1" fill="#fefefe" d="M -0.5,-0.5 C 249.5,-0.5 499.5,-0.5 749.5,-0.5C 749.5,116.167 749.5,232.833 749.5,349.5C 499.5,349.5 249.5,349.5 -0.5,349.5C -0.5,232.833 -0.5,116.167 -0.5,-0.5 Z"/></g>
<g><path style="opacity:1" fill="#647bf6" d="M 175.5,74.5 C 174.078,73.075 172.411,72.075 170.5,71.5C 148.315,56.2816 125.648,55.6149 102.5,69.5C 76.0308,92.1166 71.1975,118.783 88,149.5C 109.666,176.033 135.833,181.366 166.5,165.5C 176.822,157.855 184.489,148.188 189.5,136.5C 190.451,135.081 190.784,133.415 190.5,131.5C 172.5,131.5 154.5,131.5 136.5,131.5C 136.5,124.5 136.5,117.5 136.5,110.5C 161.833,110.5 187.167,110.5 212.5,110.5C 214.207,136.55 205.541,158.383 186.5,176C 159.184,196.847 129.85,200.181 98.5,186C 68.9838,167.469 55.4838,140.636 58,105.5C 65.677,70.491 86.8436,48.6576 121.5,40C 146.278,36.4904 168.111,42.6571 187,58.5C 187.667,59.5 187.667,60.5 187,61.5C 183.159,65.865 179.326,70.1983 175.5,74.5 Z"/></g>
<g><path style="opacity:1" fill="#69ab53" d="M 543.5,46.5 C 550.5,46.5 557.5,46.5 564.5,46.5C 564.5,94.8333 564.5,143.167 564.5,191.5C 557.5,191.5 550.5,191.5 543.5,191.5C 543.5,143.167 543.5,94.8333 543.5,46.5 Z"/></g>
<g><path style="opacity:1" fill="#d0e9c6" d="M 543.5,46.5 C 550.648,45.5084 557.981,45.175 565.5,45.5C 565.832,94.3362 565.499,143.003 564.5,191.5C 564.5,143.167 564.5,94.8333 564.5,46.5C 557.5,46.5 550.5,46.5 543.5,46.5 Z"/></g>
<g><path style="opacity:1" fill="#99a2ed" d="M 170.5,71.5 C 172.411,72.075 174.078,73.075 175.5,74.5C 173.315,75.0869 171.648,74.0869 170.5,71.5 Z"/></g>
<g><path style="opacity:1" fill="#fbc0b6" d="M 274.5,94.5 C 268.811,94.5324 263.145,94.8658 257.5,95.5C 260.526,93.9814 263.859,93.3148 267.5,93.5C 270.025,93.5034 272.359,93.8367 274.5,94.5 Z"/></g>
<g><path style="opacity:1" fill="#fef0c3" d="M 388.5,95.5 C 380.488,94.2485 372.488,94.2485 364.5,95.5C 364.611,94.8826 364.944,94.3826 365.5,94C 372.833,93.3333 380.167,93.3333 387.5,94C 388.056,94.3826 388.389,94.8826 388.5,95.5 Z"/></g>
<g><path style="opacity:1" fill="#eb4e3b" d="M 274.5,94.5 C 302.506,99.6457 317.506,116.479 319.5,145C 317.858,170.921 304.525,187.588 279.5,195C 247.258,198.384 227.091,184.55 219,153.5C 216.731,136.811 221.064,122.144 232,109.5C 239.205,102.458 247.705,97.7917 257.5,95.5C 263.145,94.8658 268.811,94.5324 274.5,94.5 Z"/></g>
<g><path style="opacity:1" fill="#fac215" d="M 388.5,95.5 C 407.77,100.936 420.27,113.27 426,132.5C 430.023,157.495 421.523,176.662 400.5,190C 370.419,202.448 346.919,194.948 330,167.5C 329.439,164.721 328.606,162.054 327.5,159.5C 327.435,156.572 326.768,153.905 325.5,151.5C 323.985,130.033 331.985,113.2 349.5,101C 354.343,98.6641 359.343,96.8308 364.5,95.5C 372.488,94.2485 380.488,94.2485 388.5,95.5 Z"/></g>
<g><path style="opacity:1" fill="#647bf6" d="M 513.5,99.5 C 520.167,99.5 526.833,99.5 533.5,99.5C 533.5,131.833 533.5,164.167 533.5,196.5C 525.072,230.368 503.405,244.534 468.5,239C 454.771,234.602 444.771,225.935 438.5,213C 439.34,211.233 440.673,209.899 442.5,209C 446.838,207.164 451.172,205.33 455.5,203.5C 467.006,220.572 482.006,224.405 500.5,215C 509.902,207.704 513.902,198.204 512.5,186.5C 490.295,199.497 468.962,198.331 448.5,183C 431.351,163.921 428.184,142.754 439,119.5C 458.512,92.1404 482.845,86.8071 512,103.5C 512.21,101.942 512.71,100.609 513.5,99.5 Z"/></g>
<g><path style="opacity:1" fill="#acb5f7" d="M 513.5,99.5 C 520.313,98.5088 527.313,98.1755 534.5,98.5C 534.832,131.338 534.498,164.004 533.5,196.5C 533.5,164.167 533.5,131.833 533.5,99.5C 526.833,99.5 520.167,99.5 513.5,99.5 Z"/></g>
<g><path style="opacity:1" fill="#fefcfb" d="M 263.5,114.5 C 293.599,116.431 304.099,131.764 295,160.5C 283.186,176.166 268.686,179.332 251.5,170C 234.29,153.32 234.29,136.653 251.5,120C 255.451,117.855 259.451,116.021 263.5,114.5 Z"/></g>
<g><path style="opacity:1" fill="#fcfdfe" d="M 479.5,114.5 C 493.682,114.265 504.182,120.265 511,132.5C 516.656,149.663 511.822,162.83 496.5,172C 480.221,178.806 467.055,174.972 457,160.5C 448.294,136.915 455.794,121.582 479.5,114.5 Z"/></g>
<g><path style="opacity:1" fill="#ffecb9" d="M 380.5,115.5 C 375.047,115.365 369.714,116.032 364.5,117.5C 369.598,114.591 374.931,113.925 380.5,115.5 Z"/></g>
<g><path style="opacity:1" fill="#fefefc" d="M 380.5,115.5 C 392.446,117.447 400.446,124.113 404.5,135.5C 405.275,140.797 405.608,146.13 405.5,151.5C 397.886,172.213 383.553,179.046 362.5,172C 345.397,160.015 341.897,144.848 352,126.5C 355.785,122.869 359.951,119.869 364.5,117.5C 369.714,116.032 375.047,115.365 380.5,115.5 Z"/></g>
<g><path style="opacity:1" fill="#eb4e3b" d="M 615.5,94.5 C 634.518,92.9274 650.351,99.2607 663,113.5C 666.28,117.726 668.78,122.393 670.5,127.5C 670.182,128.647 669.516,129.481 668.5,130C 645.242,140.667 622.076,151.167 599,161.5C 598.685,162.908 599.018,164.241 600,165.5C 616.935,179.54 632.935,178.54 648,162.5C 653.485,165.577 658.818,168.91 664,172.5C 664.667,173.5 664.667,174.5 664,175.5C 642.978,198.081 619.145,201.581 592.5,186C 575.136,171.398 568.97,152.898 574,130.5C 580.974,110.452 594.807,98.4517 615.5,94.5 Z"/></g>
<g><path style="opacity:1" fill="#fdf9f8" d="M 617.5,114.5 C 626.805,113.591 634.805,116.258 641.5,122.5C 625.52,130.657 609.187,137.991 592.5,144.5C 594.314,129.023 602.647,119.023 617.5,114.5 Z"/></g>
<g><path style="opacity:1" fill="#b0bafe" d="M 212.5,110.5 C 187.167,110.5 161.833,110.5 136.5,110.5C 136.5,117.5 136.5,124.5 136.5,131.5C 154.5,131.5 172.5,131.5 190.5,131.5C 190.784,133.415 190.451,135.081 189.5,136.5C 189.5,135.167 189.5,133.833 189.5,132.5C 171.5,132.5 153.5,132.5 135.5,132.5C 135.5,124.833 135.5,117.167 135.5,109.5C 161.339,109.169 187.005,109.502 212.5,110.5 Z"/></g>
<g><path style="opacity:1" fill="#fde495" d="M 404.5,135.5 C 406.006,138.356 406.672,141.523 406.5,145C 406.496,147.361 406.163,149.527 405.5,151.5C 405.608,146.13 405.275,140.797 404.5,135.5 Z"/></g>
<g><path style="opacity:1" fill="#fce494" d="M 325.5,151.5 C 326.768,153.905 327.435,156.572 327.5,159.5C 325.96,157.162 325.294,154.495 325.5,151.5 Z"/></g>
<g><path style="opacity:1" fill="#4951b2" d="M 284.5,226.5 C 286.5,226.5 288.5,226.5 290.5,226.5C 290.5,243.833 290.5,261.167 290.5,278.5C 288.5,278.5 286.5,278.5 284.5,278.5C 284.5,261.167 284.5,243.833 284.5,226.5 Z"/></g>
<g><path style="opacity:1" fill="#4a53b1" d="M 368.5,228.5 C 369.5,228.5 370.5,228.5 371.5,228.5C 371.5,232.5 371.5,236.5 371.5,240.5C 373.5,240.5 375.5,240.5 377.5,240.5C 377.5,242.5 377.5,244.5 377.5,246.5C 375.5,246.5 373.5,246.5 371.5,246.5C 371.169,255.192 371.502,263.859 372.5,272.5C 374.409,273.348 376.409,273.682 378.5,273.5C 378.5,275.5 378.5,277.5 378.5,279.5C 373.959,280.231 369.959,279.231 366.5,276.5C 365.501,266.522 365.168,256.522 365.5,246.5C 363.833,246.5 362.167,246.5 360.5,246.5C 360.322,242.898 359.322,242.898 357.5,246.5C 353.779,244.757 350.612,245.424 348,248.5C 346.577,258.42 346.077,268.42 346.5,278.5C 344.5,278.5 342.5,278.5 340.5,278.5C 340.5,265.833 340.5,253.167 340.5,240.5C 342.167,240.5 343.833,240.5 345.5,240.5C 345.238,241.978 345.571,243.311 346.5,244.5C 350.035,239.226 354.535,238.226 360,241.5C 361.699,240.594 363.533,240.261 365.5,240.5C 364.873,235.929 365.873,231.929 368.5,228.5 Z"/></g>
<g><path style="opacity:1" fill="#4b53b2" d="M 310.5,239.5 C 321.264,238.124 328.431,242.457 332,252.5C 332.498,255.482 332.665,258.482 332.5,261.5C 323.167,261.5 313.833,261.5 304.5,261.5C 305.517,270.664 310.517,274.497 319.5,273C 322.337,271.328 324.67,269.161 326.5,266.5C 328.071,267.309 329.738,267.643 331.5,267.5C 329.98,273.852 325.98,277.685 319.5,279C 309.108,280.598 302.274,276.432 299,266.5C 295.831,254.2 299.664,245.2 310.5,239.5 Z"/></g>
<g><path style="opacity:1" fill="#f9fafb" d="M 311.5,245.5 C 319.891,244.003 324.558,247.336 325.5,255.5C 318.833,255.5 312.167,255.5 305.5,255.5C 305.412,250.92 307.412,247.587 311.5,245.5 Z"/></g>
<g><path style="opacity:1" fill="#4c55b2" d="M 250.5,226.5 C 253.448,226.223 256.281,226.556 259,227.5C 265.629,244.281 272.462,260.947 279.5,277.5C 276.914,278.48 274.247,278.813 271.5,278.5C 269.691,273.619 268.024,268.619 266.5,263.5C 259.189,262.335 251.856,262.169 244.5,263C 242.407,267.776 240.407,272.609 238.5,277.5C 236.167,278.833 233.833,278.833 231.5,277.5C 238.113,260.608 244.446,243.608 250.5,226.5 Z"/></g>
<g><path style="opacity:1" fill="#f5f7fa" d="M 254.5,233.5 C 257.579,240.889 260.579,248.389 263.5,256C 257.804,256.83 252.137,256.663 246.5,255.5C 249.481,248.219 252.147,240.886 254.5,233.5 Z"/></g>
<g><path style="opacity:1" fill="#4d55b2" d="M 391.5,239.5 C 398.251,238.295 404.085,239.962 409,244.5C 410.128,246.345 410.628,248.345 410.5,250.5C 408.738,250.357 407.071,250.691 405.5,251.5C 403.706,247.108 400.372,245.108 395.5,245.5C 391.991,245.177 389.657,246.677 388.5,250C 388.759,251.261 389.426,252.261 390.5,253C 396.019,255.13 401.686,256.797 407.5,258C 414.167,264.333 414.167,270.667 407.5,277C 401.28,279.789 394.946,280.123 388.5,278C 385.493,275.834 383.493,273.001 382.5,269.5C 382.608,268.558 382.941,267.725 383.5,267C 385.134,266.506 386.801,266.34 388.5,266.5C 389.629,271.691 392.963,274.024 398.5,273.5C 402.394,273.438 405.061,271.604 406.5,268C 406.241,266.739 405.574,265.739 404.5,265C 398.425,263.251 392.425,261.251 386.5,259C 385.667,258.167 384.833,257.333 384,256.5C 383.333,252.833 383.333,249.167 384,245.5C 386.114,242.879 388.614,240.879 391.5,239.5 Z"/></g>
</svg>
