<?xml version="1.0" encoding="UTF-8"?>
<!DOCTYPE svg PUBLIC "-//W3C//DTD SVG 1.1//EN" "http://www.w3.org/Graphics/SVG/1.1/DTD/svg11.dtd">
<svg xmlns="http://www.w3.org/2000/svg" version="1.1" width="1280px" height="720px" style="shape-rendering:geometricPrecision; text-rendering:geometricPrecision; image-rendering:optimizeQuality; fill-rule:evenodd; clip-rule:evenodd" xmlns:xlink="http://www.w3.org/1999/xlink">
<g><path style="opacity:1" fill="#000000" d="M -0.5,-0.5 C 426.167,-0.5 852.833,-0.5 1279.5,-0.5C 1279.5,13.5 1279.5,27.5 1279.5,41.5C 852.833,41.5 426.167,41.5 -0.5,41.5C -0.5,27.5 -0.5,13.5 -0.5,-0.5 Z"/></g>
<g><path style="opacity:1" fill="#fefefe" d="M -0.5,41.5 C 426.167,41.5 852.833,41.5 1279.5,41.5C 1279.5,253.5 1279.5,465.5 1279.5,677.5C 852.833,677.5 426.167,677.5 -0.5,677.5C -0.5,465.5 -0.5,253.5 -0.5,41.5 Z"/></g>
<g><path style="opacity:1" fill="#5d5d5d" d="M 730.5,196.5 C 719.752,196.677 709.086,197.677 698.5,199.5C 700.148,198.073 702.148,197.24 704.5,197C 710.829,196.445 717.162,195.945 723.5,195.5C 726.025,195.503 728.359,195.837 730.5,196.5 Z"/></g>
<g><path style="opacity:1" fill="#5a5a5a" d="M 731.5,196.5 C 737.537,196.126 743.203,197.126 748.5,199.5C 742.685,198.601 737.018,197.601 731.5,196.5 Z"/></g>
<g><path style="opacity:1" fill="#0d0d0d" d="M 730.5,196.5 C 730.833,196.5 731.167,196.5 731.5,196.5C 737.018,197.601 742.685,198.601 748.5,199.5C 750.042,200.301 751.708,200.634 753.5,200.5C 755.102,202.074 757.102,202.741 759.5,202.5C 761.566,204.199 763.9,205.532 766.5,206.5C 770.833,209.167 775.167,211.833 779.5,214.5C 783.141,217.805 786.808,221.138 790.5,224.5C 797.093,231.374 802.426,239.04 806.5,247.5C 806.935,250.157 807.935,252.491 809.5,254.5C 811.065,256.509 812.065,258.843 812.5,261.5C 818.673,263.009 824.673,265.342 830.5,268.5C 833.642,271.302 835.975,274.635 837.5,278.5C 839.182,284.68 839.848,291.013 839.5,297.5C 839.037,300.221 838.371,302.888 837.5,305.5C 833.881,309.785 829.881,313.785 825.5,317.5C 822.593,317.575 819.927,318.409 817.5,320C 813.514,320.499 809.514,320.666 805.5,320.5C 801.938,320.035 798.605,318.868 795.5,317C 792.715,314.564 790.048,312.064 787.5,309.5C 786.92,307.251 785.587,305.585 783.5,304.5C 783.5,303.833 783.5,303.167 783.5,302.5C 781.935,296.622 781.268,290.622 781.5,284.5C 782.537,283.07 783.204,281.403 783.5,279.5C 787.017,274.632 791.017,269.965 795.5,265.5C 797.372,264.489 799.372,263.655 801.5,263C 801.763,257.925 800.43,253.091 797.5,248.5C 795.536,244.379 792.869,240.712 789.5,237.5C 787.234,233.564 784.234,230.231 780.5,227.5C 771.51,218.362 760.843,211.862 748.5,208C 746.866,207.506 745.199,207.34 743.5,207.5C 741.958,206.837 740.291,206.17 738.5,205.5C 722.27,203.052 706.604,204.552 691.5,210C 690.619,210.708 689.953,211.542 689.5,212.5C 685.337,212.691 682.004,214.357 679.5,217.5C 677.251,218.08 675.585,219.413 674.5,221.5C 668.833,225.167 664.167,229.833 660.5,235.5C 657.395,238.275 655.062,241.608 653.5,245.5C 650.393,249.379 648.059,253.712 646.5,258.5C 645.549,259.919 645.216,261.585 645.5,263.5C 646.833,263.5 648.167,263.5 649.5,263.5C 651.027,263.427 652.027,264.094 652.5,265.5C 653.899,266.89 655.566,267.89 657.5,268.5C 658.916,270.179 660.25,271.846 661.5,273.5C 662.449,275.777 663.782,277.777 665.5,279.5C 666.32,285.797 666.653,292.131 666.5,298.5C 665.108,301.007 664.108,303.673 663.5,306.5C 662.094,306.973 661.427,307.973 661.5,309.5C 658.808,311.862 656.141,314.196 653.5,316.5C 648.596,318.343 643.93,320.343 639.5,322.5C 637.262,325.43 635.929,328.763 635.5,332.5C 632.084,336.323 629.418,340.657 627.5,345.5C 622.84,351.161 618.173,356.828 613.5,362.5C 610.911,363.419 608.911,365.086 607.5,367.5C 603.975,368.759 600.975,370.759 598.5,373.5C 595.008,374.41 592.008,376.076 589.5,378.5C 587.302,378.12 585.635,378.787 584.5,380.5C 581.848,380.41 579.515,381.076 577.5,382.5C 571.392,383.636 565.392,384.636 559.5,385.5C 546.658,385.644 533.991,384.311 521.5,381.5C 519.898,379.926 517.898,379.259 515.5,379.5C 511.508,377.17 507.508,374.837 503.5,372.5C 499.293,370.565 495.627,367.898 492.5,364.5C 489.5,360.833 486.167,357.5 482.5,354.5C 480.565,350.293 477.898,346.627 474.5,343.5C 471.165,335.33 467.165,327.496 462.5,320C 460.866,319.506 459.199,319.34 457.5,319.5C 453.499,318.668 449.832,317.001 446.5,314.5C 445.167,312.5 443.5,310.833 441.5,309.5C 438.427,305.348 436.427,300.681 435.5,295.5C 435.442,288.065 437.109,281.065 440.5,274.5C 443.833,271.833 446.833,268.833 449.5,265.5C 452.086,264.99 454.419,263.99 456.5,262.5C 461.463,261.746 466.463,261.413 471.5,261.5C 471.842,262.338 472.508,262.672 473.5,262.5C 475.033,264.245 477.033,265.245 479.5,265.5C 494.363,275.3 498.363,288.634 491.5,305.5C 488.913,308.429 486.246,311.429 483.5,314.5C 481.405,315.412 479.405,316.579 477.5,318C 476.207,318.49 474.873,318.657 473.5,318.5C 473.517,320.565 473.85,322.565 474.5,324.5C 474.896,327.721 476.229,330.388 478.5,332.5C 479.973,335.447 481.473,338.447 483,341.5C 488.287,347.624 493.787,353.624 499.5,359.5C 500.94,360.952 502.606,361.952 504.5,362.5C 507.988,366.417 512.321,369.083 517.5,370.5C 519.102,372.074 521.102,372.741 523.5,372.5C 541.157,378.664 559.157,379.164 577.5,374C 580.445,373.861 582.779,372.694 584.5,370.5C 589.551,367.747 594.551,365.08 599.5,362.5C 608.218,357.449 614.885,350.449 619.5,341.5C 621.246,337.673 623.246,334.007 625.5,330.5C 628.113,327.355 629.779,323.689 630.5,319.5C 628.5,319.167 626.5,318.833 624.5,318.5C 622.833,317.167 621.167,315.833 619.5,314.5C 618.167,312.5 616.5,310.833 614.5,309.5C 612.383,306.016 610.716,302.349 609.5,298.5C 609.375,292.797 609.708,287.13 610.5,281.5C 611.167,279.5 611.833,277.5 612.5,275.5C 615.833,272.833 618.833,269.833 621.5,266.5C 622.687,264.025 624.687,263.025 627.5,263.5C 630.228,263.829 632.562,263.163 634.5,261.5C 638.07,255.364 641.403,249.031 644.5,242.5C 646.326,240.853 647.66,238.853 648.5,236.5C 653.843,231.156 658.843,225.489 663.5,219.5C 663.5,218.167 664.167,217.5 665.5,217.5C 668.089,216.581 670.089,214.914 671.5,212.5C 671.953,211.542 672.619,210.708 673.5,210C 677.369,207.986 681.369,206.152 685.5,204.5C 689.987,203.008 694.32,201.342 698.5,199.5C 709.086,197.677 719.752,196.677 730.5,196.5 Z"/></g>
<g><path style="opacity:1" fill="#8e8e8e" d="M 753.5,200.5 C 755.898,200.259 757.898,200.926 759.5,202.5C 757.102,202.741 755.102,202.074 753.5,200.5 Z"/></g>
<g><path style="opacity:1" fill="#787878" d="M 698.5,199.5 C 694.32,201.342 689.987,203.008 685.5,204.5C 689.126,201.505 693.459,199.838 698.5,199.5 Z"/></g>
<g><path style="opacity:1" fill="#797979" d="M 759.5,202.5 C 762.546,202.725 764.879,204.058 766.5,206.5C 763.9,205.532 761.566,204.199 759.5,202.5 Z"/></g>
<g><path style="opacity:1" fill="#ababab" d="M 743.5,207.5 C 732.181,206.539 720.848,206.372 709.5,207C 702.959,209.144 696.293,210.978 689.5,212.5C 689.953,211.542 690.619,210.708 691.5,210C 706.604,204.552 722.27,203.052 738.5,205.5C 740.291,206.17 741.958,206.837 743.5,207.5 Z"/></g>
<g><path style="opacity:1" fill="#585858" d="M 671.5,212.5 C 670.089,214.914 668.089,216.581 665.5,217.5C 666.911,215.086 668.911,213.419 671.5,212.5 Z"/></g>
<g><path style="opacity:1" fill="#afafaf" d="M 689.5,212.5 C 687.859,214.258 685.859,215.758 683.5,217C 682.207,217.49 680.873,217.657 679.5,217.5C 682.004,214.357 685.337,212.691 689.5,212.5 Z"/></g>
<g><path style="opacity:1" fill="#aeaeae" d="M 779.5,214.5 C 780.873,214.343 782.207,214.51 783.5,215C 786.076,218.063 788.409,221.229 790.5,224.5C 786.808,221.138 783.141,217.805 779.5,214.5 Z"/></g>
<g><path style="opacity:1" fill="#909090" d="M 679.5,217.5 C 678.415,219.587 676.749,220.92 674.5,221.5C 675.585,219.413 677.251,218.08 679.5,217.5 Z"/></g>
<g><path style="opacity:1" fill="#a2a2a2" d="M 780.5,227.5 C 784.234,230.231 787.234,233.564 789.5,237.5C 785.766,234.769 782.766,231.436 780.5,227.5 Z"/></g>
<g><path style="opacity:1" fill="#616161" d="M 663.5,219.5 C 658.843,225.489 653.843,231.156 648.5,236.5C 650.7,232.12 653.533,228.12 657,224.5C 658.777,222.21 660.944,220.543 663.5,219.5 Z"/></g>
<g><path style="opacity:1" fill="#959595" d="M 674.5,221.5 C 670.167,226.5 665.5,231.167 660.5,235.5C 664.167,229.833 668.833,225.167 674.5,221.5 Z"/></g>
<g><path style="opacity:1" fill="#888888" d="M 648.5,236.5 C 647.66,238.853 646.326,240.853 644.5,242.5C 644.845,239.802 646.178,237.802 648.5,236.5 Z"/></g>
<g><path style="opacity:1" fill="#858585" d="M 806.5,247.5 C 808.834,249.176 809.834,251.509 809.5,254.5C 807.935,252.491 806.935,250.157 806.5,247.5 Z"/></g>
<g><path style="opacity:1" fill="#909090" d="M 653.5,245.5 C 652.444,250.617 650.111,254.95 646.5,258.5C 648.059,253.712 650.393,249.379 653.5,245.5 Z"/></g>
<g><path style="opacity:1" fill="#acacac" d="M 471.5,261.5 C 466.463,261.413 461.463,261.746 456.5,262.5C 456.918,261.778 457.584,261.278 458.5,261C 463.02,260.186 467.354,260.353 471.5,261.5 Z"/></g>
<g><path style="opacity:1" fill="#838383" d="M 646.5,258.5 C 646.5,259.833 646.5,261.167 646.5,262.5C 647.791,262.263 648.791,262.596 649.5,263.5C 648.167,263.5 646.833,263.5 645.5,263.5C 645.216,261.585 645.549,259.919 646.5,258.5 Z"/></g>
<g><path style="opacity:1" fill="#585858" d="M 634.5,261.5 C 632.562,263.163 630.228,263.829 627.5,263.5C 629.438,261.837 631.772,261.171 634.5,261.5 Z"/></g>
<g><path style="opacity:1" fill="#b2b2b2" d="M 812.5,261.5 C 820.39,259.605 826.39,261.938 830.5,268.5C 824.673,265.342 818.673,263.009 812.5,261.5 Z"/></g>
<g><path style="opacity:1" fill="#787878" d="M 538.5,265.5 C 534.473,263.642 530.14,262.975 525.5,263.5C 525.5,282.167 525.5,300.833 525.5,319.5C 529.167,319.5 532.833,319.5 536.5,319.5C 536.833,319.5 537.167,319.5 537.5,319.5C 537.5,319.833 537.5,320.167 537.5,320.5C 533.167,320.5 528.833,320.5 524.5,320.5C 524.5,301.167 524.5,281.833 524.5,262.5C 528.846,262.334 533.179,262.501 537.5,263C 538.252,263.671 538.586,264.504 538.5,265.5 Z"/></g>
<g><path style="opacity:1" fill="#070707" d="M 538.5,265.5 C 545.21,273.544 551.543,281.877 557.5,290.5C 558.08,292.749 559.413,294.415 561.5,295.5C 562.906,295.973 563.573,296.973 563.5,298.5C 564.209,299.404 565.209,299.737 566.5,299.5C 566.5,287.5 566.5,275.5 566.5,263.5C 570.167,263.5 573.833,263.5 577.5,263.5C 577.5,282.167 577.5,300.833 577.5,319.5C 573.5,319.5 569.5,319.5 565.5,319.5C 564.299,317.091 562.633,315.091 560.5,313.5C 558.984,310.467 556.984,307.8 554.5,305.5C 553.92,303.251 552.587,301.585 550.5,300.5C 549.92,298.251 548.587,296.585 546.5,295.5C 545.214,292.883 543.547,290.55 541.5,288.5C 541.573,286.973 540.906,285.973 539.5,285.5C 538.791,284.596 537.791,284.263 536.5,284.5C 536.5,296.167 536.5,307.833 536.5,319.5C 532.833,319.5 529.167,319.5 525.5,319.5C 525.5,300.833 525.5,282.167 525.5,263.5C 530.14,262.975 534.473,263.642 538.5,265.5 Z"/></g>
<g><path style="opacity:1" fill="#717171" d="M 565.5,319.5 C 569.5,319.5 573.5,319.5 577.5,319.5C 577.5,300.833 577.5,282.167 577.5,263.5C 573.833,263.5 570.167,263.5 566.5,263.5C 566.5,275.5 566.5,287.5 566.5,299.5C 565.209,299.737 564.209,299.404 563.5,298.5C 565.479,286.88 566.146,274.88 565.5,262.5C 569.833,262.5 574.167,262.5 578.5,262.5C 578.5,281.833 578.5,301.167 578.5,320.5C 573.968,320.818 569.634,320.485 565.5,319.5 Z"/></g>
<g><path style="opacity:1" fill="#8a8a8a" d="M 724.5,262.5 C 715.833,262.5 707.167,262.5 698.5,262.5C 698.5,281.5 698.5,300.5 698.5,319.5C 706.5,319.5 714.5,319.5 722.5,319.5C 714.35,320.493 706.017,320.826 697.5,320.5C 697.5,300.833 697.5,281.167 697.5,261.5C 706.682,261.173 715.682,261.507 724.5,262.5 Z"/></g>
<g><path style="opacity:1" fill="#2e2e2e" d="M 724.5,262.5 C 724.5,262.833 724.5,263.167 724.5,263.5C 716.167,263.5 707.833,263.5 699.5,263.5C 699.5,281.833 699.5,300.167 699.5,318.5C 708.839,318.666 718.173,318.5 727.5,318C 730.546,317.261 733.546,316.428 736.5,315.5C 735.653,316.966 734.32,317.8 732.5,318C 729.243,319.043 725.91,319.543 722.5,319.5C 714.5,319.5 706.5,319.5 698.5,319.5C 698.5,300.5 698.5,281.5 698.5,262.5C 707.167,262.5 715.833,262.5 724.5,262.5 Z"/></g>
<g><path style="opacity:1" fill="#060606" d="M 724.5,263.5 C 733.545,264.441 741.045,268.441 747,275.5C 747.546,278.379 748.379,281.046 749.5,283.5C 749.575,289.529 749.241,295.529 748.5,301.5C 746.755,303.033 745.755,305.033 745.5,307.5C 743.863,309.475 742.196,311.475 740.5,313.5C 738.938,313.733 737.605,314.4 736.5,315.5C 733.546,316.428 730.546,317.261 727.5,318C 718.173,318.5 708.839,318.666 699.5,318.5C 699.5,300.167 699.5,281.833 699.5,263.5C 707.833,263.5 716.167,263.5 724.5,263.5 Z"/></g>
<g><path style="opacity:1" fill="#646464" d="M 473.5,262.5 C 475.967,262.755 477.967,263.755 479.5,265.5C 477.033,265.245 475.033,264.245 473.5,262.5 Z"/></g>
<g><path style="opacity:1" fill="#949494" d="M 652.5,265.5 C 654.989,265.241 656.656,266.241 657.5,268.5C 655.566,267.89 653.899,266.89 652.5,265.5 Z"/></g>
<g><path style="opacity:1" fill="#5e5e5e" d="M 449.5,265.5 C 446.833,268.833 443.833,271.833 440.5,274.5C 442.5,270.5 445.5,267.5 449.5,265.5 Z"/></g>
<g><path style="opacity:1" fill="#636363" d="M 795.5,265.5 C 791.017,269.965 787.017,274.632 783.5,279.5C 785.716,273.285 789.716,268.619 795.5,265.5 Z"/></g>
<g><path style="opacity:1" fill="#696969" d="M 621.5,266.5 C 618.833,269.833 615.833,272.833 612.5,275.5C 614.5,271.5 617.5,268.5 621.5,266.5 Z"/></g>
<g><path style="opacity:1" fill="#797979" d="M 646.5,274.5 C 640.376,272.922 634.376,273.255 628.5,275.5C 629.058,274.21 630.058,273.377 631.5,273C 633.5,272.833 635.5,272.667 637.5,272.5C 640.814,272.343 643.814,273.009 646.5,274.5 Z"/></g>
<g><path style="opacity:1" fill="#b8b8b8" d="M 473.5,275.5 C 467.87,274.708 462.203,274.375 456.5,274.5C 458.634,272.967 461.134,272.3 464,272.5C 467.713,272.105 470.88,273.105 473.5,275.5 Z"/></g>
<g><path style="opacity:1" fill="#b6b6b6" d="M 818.5,275.5 C 813.213,274.658 807.88,274.324 802.5,274.5C 804.634,272.967 807.134,272.3 810,272.5C 813.483,272.046 816.316,273.046 818.5,275.5 Z"/></g>
<g><path style="opacity:1" fill="#fafafa" d="M 456.5,274.5 C 462.203,274.375 467.87,274.708 473.5,275.5C 476.856,277.198 479.523,279.532 481.5,282.5C 482.373,286.768 482.706,291.102 482.5,295.5C 482.5,296.167 482.5,296.833 482.5,297.5C 479.959,301.252 476.959,304.585 473.5,307.5C 468.836,309.57 464.17,309.903 459.5,308.5C 456.526,306.538 453.526,304.538 450.5,302.5C 449.4,301.395 448.733,300.062 448.5,298.5C 446.04,288.761 448.707,280.761 456.5,274.5 Z"/></g>
<g><path style="opacity:1" fill="#fbfbfb" d="M 646.5,274.5 C 647.945,276.063 649.611,277.396 651.5,278.5C 654.503,285.206 655.17,292.206 653.5,299.5C 651.805,303.195 649.139,305.861 645.5,307.5C 645.158,308.338 644.492,308.672 643.5,308.5C 639.445,308.824 635.445,308.491 631.5,307.5C 630.06,306.048 628.394,305.048 626.5,304.5C 625.167,303.5 623.833,302.5 622.5,301.5C 621.833,299.5 621.167,297.5 620.5,295.5C 620.467,291.131 620.8,286.798 621.5,282.5C 624.167,280.5 626.5,278.167 628.5,275.5C 634.376,273.255 640.376,272.922 646.5,274.5 Z"/></g>
<g><path style="opacity:1" fill="#9f9f9f" d="M 725.5,274.5 C 720.833,274.5 716.167,274.5 711.5,274.5C 711.5,285.5 711.5,296.5 711.5,307.5C 716.167,307.5 720.833,307.5 725.5,307.5C 725.5,307.833 725.5,308.167 725.5,308.5C 720.433,309.824 715.266,309.824 710,308.5C 709.333,296.833 709.333,285.167 710,273.5C 714.748,272.365 719.581,272.198 724.5,273C 725.056,273.383 725.389,273.883 725.5,274.5 Z"/></g>
<g><path style="opacity:1" fill="#fcfcfc" d="M 725.5,274.5 C 728.546,274.725 730.879,276.058 732.5,278.5C 733.64,280.78 734.807,283.114 736,285.5C 736.498,288.482 736.665,291.482 736.5,294.5C 735.853,301.496 732.186,305.829 725.5,307.5C 720.833,307.5 716.167,307.5 711.5,307.5C 711.5,296.5 711.5,285.5 711.5,274.5C 716.167,274.5 720.833,274.5 725.5,274.5 Z"/></g>
<g><path style="opacity:1" fill="#f9f9f9" d="M 802.5,274.5 C 807.88,274.324 813.213,274.658 818.5,275.5C 822.001,276.328 824.668,278.328 826.5,281.5C 827.811,286.061 828.478,290.728 828.5,295.5C 828.737,296.791 828.404,297.791 827.5,298.5C 825.916,301.426 823.916,304.092 821.5,306.5C 814.435,310.446 807.435,310.446 800.5,306.5C 799.167,304.5 797.5,302.833 795.5,301.5C 795.107,299.716 794.441,298.05 793.5,296.5C 793.437,291.797 793.771,287.13 794.5,282.5C 797.5,280.167 800.167,277.5 802.5,274.5 Z"/></g>
<g><path style="opacity:1" fill="#989898" d="M 456.5,274.5 C 448.707,280.761 446.04,288.761 448.5,298.5C 443.818,288.084 446.484,280.084 456.5,274.5 Z"/></g>
<g><path style="opacity:1" fill="#7c7c7c" d="M 661.5,273.5 C 664.044,274.708 665.378,276.708 665.5,279.5C 663.782,277.777 662.449,275.777 661.5,273.5 Z"/></g>
<g><path style="opacity:1" fill="#8c8c8c" d="M 802.5,274.5 C 800.167,277.5 797.5,280.167 794.5,282.5C 796.167,278.833 798.833,276.167 802.5,274.5 Z"/></g>
<g><path style="opacity:1" fill="#888888" d="M 628.5,275.5 C 626.5,278.167 624.167,280.5 621.5,282.5C 622.833,279.167 625.167,276.833 628.5,275.5 Z"/></g>
<g><path style="opacity:1" fill="#808080" d="M 440.5,274.5 C 437.109,281.065 435.442,288.065 435.5,295.5C 433.951,289.037 434.785,282.703 438,276.5C 438.417,275.244 439.25,274.577 440.5,274.5 Z"/></g>
<g><path style="opacity:1" fill="#a7a7a7" d="M 732.5,278.5 C 734.844,279.347 736.344,281.014 737,283.5C 737.499,287.152 737.665,290.818 737.5,294.5C 737.167,294.5 736.833,294.5 736.5,294.5C 736.665,291.482 736.498,288.482 736,285.5C 734.807,283.114 733.64,280.78 732.5,278.5 Z"/></g>
<g><path style="opacity:1" fill="#444444" d="M 837.5,278.5 C 838.558,279.6 839.392,280.934 840,282.5C 840.816,287.684 840.65,292.684 839.5,297.5C 839.848,291.013 839.182,284.68 837.5,278.5 Z"/></g>
<g><path style="opacity:1" fill="#adadad" d="M 539.5,285.5 C 540.906,285.973 541.573,286.973 541.5,288.5C 540.542,288.047 539.708,287.381 539,286.5C 538.831,298.007 538.331,309.341 537.5,320.5C 537.5,320.167 537.5,319.833 537.5,319.5C 536.856,307.784 537.522,296.451 539.5,285.5 Z"/></g>
<g><path style="opacity:1" fill="#878787" d="M 621.5,282.5 C 620.8,286.798 620.467,291.131 620.5,295.5C 619.839,293.866 619.506,292.033 619.5,290C 619.3,287.134 619.967,284.634 621.5,282.5 Z"/></g>
<g><path style="opacity:1" fill="#4a4a4a" d="M 481.5,282.5 C 483.755,284.759 484.755,287.592 484.5,291C 484.431,292.986 483.765,294.486 482.5,295.5C 482.706,291.102 482.373,286.768 481.5,282.5 Z"/></g>
<g><path style="opacity:1" fill="#cacaca" d="M 651.5,278.5 C 654.27,280.366 655.77,283.032 656,286.5C 656.85,291.021 656.35,295.355 654.5,299.5C 654.167,299.5 653.833,299.5 653.5,299.5C 655.17,292.206 654.503,285.206 651.5,278.5 Z"/></g>
<g><path style="opacity:1" fill="#505050" d="M 665.5,279.5 C 666.738,281.214 667.405,283.214 667.5,285.5C 667.818,290.032 667.485,294.366 666.5,298.5C 666.653,292.131 666.32,285.797 665.5,279.5 Z"/></g>
<g><path style="opacity:1" fill="#a5a5a5" d="M 826.5,281.5 C 828.067,282.681 828.901,284.347 829,286.5C 829.805,289.696 829.638,292.696 828.5,295.5C 828.478,290.728 827.811,286.061 826.5,281.5 Z"/></g>
<g><path style="opacity:1" fill="#8d8d8d" d="M 794.5,282.5 C 793.771,287.13 793.437,291.797 793.5,296.5C 792.838,294.696 792.505,292.696 792.5,290.5C 792.287,287.473 792.953,284.807 794.5,282.5 Z"/></g>
<g><path style="opacity:1" fill="#414141" d="M 610.5,281.5 C 609.708,287.13 609.375,292.797 609.5,298.5C 608.515,294.366 608.182,290.032 608.5,285.5C 608.989,284.005 609.655,282.671 610.5,281.5 Z"/></g>
<g><path style="opacity:1" fill="#4e4e4e" d="M 539.5,285.5 C 537.522,296.451 536.856,307.784 537.5,319.5C 537.167,319.5 536.833,319.5 536.5,319.5C 536.5,307.833 536.5,296.167 536.5,284.5C 537.791,284.263 538.791,284.596 539.5,285.5 Z"/></g>
<g><path style="opacity:1" fill="#555555" d="M 557.5,290.5 C 559.587,291.585 560.92,293.251 561.5,295.5C 559.413,294.415 558.08,292.749 557.5,290.5 Z"/></g>
<g><path style="opacity:1" fill="#949494" d="M 546.5,295.5 C 548.587,296.585 549.92,298.251 550.5,300.5C 548.413,299.415 547.08,297.749 546.5,295.5 Z"/></g>
<g><path style="opacity:1" fill="#b0b0b0" d="M 608.5,285.5 C 608.182,290.032 608.515,294.366 609.5,298.5C 610.716,302.349 612.383,306.016 614.5,309.5C 613.518,308.859 612.518,308.193 611.5,307.5C 610.716,304.951 609.549,302.618 608,300.5C 607.184,295.316 607.35,290.316 608.5,285.5 Z"/></g>
<g><path style="opacity:1" fill="#878787" d="M 781.5,284.5 C 781.268,290.622 781.935,296.622 783.5,302.5C 780.52,296.728 779.853,290.728 781.5,284.5 Z"/></g>
<g><path style="opacity:1" fill="#a2a2a2" d="M 749.5,283.5 C 750.652,288.985 750.818,294.651 750,300.5C 749.617,301.056 749.117,301.389 748.5,301.5C 749.241,295.529 749.575,289.529 749.5,283.5 Z"/></g>
<g><path style="opacity:1" fill="#b1b1b1" d="M 667.5,285.5 C 668.65,290.316 668.816,295.316 668,300.5C 666.723,302.747 665.223,304.747 663.5,306.5C 664.108,303.673 665.108,301.007 666.5,298.5C 667.485,294.366 667.818,290.032 667.5,285.5 Z"/></g>
<g><path style="opacity:1" fill="#999999" d="M 450.5,302.5 C 453.526,304.538 456.526,306.538 459.5,308.5C 455.47,308.151 452.47,306.151 450.5,302.5 Z"/></g>
<g><path style="opacity:1" fill="#5a5a5a" d="M 622.5,301.5 C 623.833,302.5 625.167,303.5 626.5,304.5C 626.833,305.167 627.167,305.833 627.5,306.5C 624.833,305.833 623.167,304.167 622.5,301.5 Z"/></g>
<g><path style="opacity:1" fill="#5e5e5e" d="M 795.5,301.5 C 797.5,302.833 799.167,304.5 800.5,306.5C 797.833,305.833 796.167,304.167 795.5,301.5 Z"/></g>
<g><path style="opacity:1" fill="#858585" d="M 550.5,300.5 C 552.587,301.585 553.92,303.251 554.5,305.5C 552.413,304.415 551.08,302.749 550.5,300.5 Z"/></g>
<g><path style="opacity:1" fill="#6d6d6d" d="M 653.5,299.5 C 653.833,299.5 654.167,299.5 654.5,299.5C 653.381,304.286 650.381,306.953 645.5,307.5C 649.139,305.861 651.805,303.195 653.5,299.5 Z"/></g>
<g><path style="opacity:1" fill="#616161" d="M 827.5,298.5 C 827.365,302.627 825.365,305.294 821.5,306.5C 823.916,304.092 825.916,301.426 827.5,298.5 Z"/></g>
<g><path style="opacity:1" fill="#6e6e6e" d="M 482.5,297.5 C 481.323,302.551 478.323,305.885 473.5,307.5C 476.959,304.585 479.959,301.252 482.5,297.5 Z"/></g>
<g><path style="opacity:1" fill="#686868" d="M 736.5,294.5 C 736.833,294.5 737.167,294.5 737.5,294.5C 737.198,302.483 733.198,307.149 725.5,308.5C 725.5,308.167 725.5,307.833 725.5,307.5C 732.186,305.829 735.853,301.496 736.5,294.5 Z"/></g>
<g><path style="opacity:1" fill="#868686" d="M 748.5,301.5 C 748.379,304.105 747.379,306.105 745.5,307.5C 745.755,305.033 746.755,303.033 748.5,301.5 Z"/></g>
<g><path style="opacity:1" fill="#a0a0a0" d="M 626.5,304.5 C 628.394,305.048 630.06,306.048 631.5,307.5C 635.445,308.491 639.445,308.824 643.5,308.5C 639.354,309.647 635.02,309.814 630.5,309C 629.429,308.148 628.429,307.315 627.5,306.5C 627.167,305.833 626.833,305.167 626.5,304.5 Z"/></g>
<g><path style="opacity:1" fill="#939393" d="M 783.5,304.5 C 785.587,305.585 786.92,307.251 787.5,309.5C 785.413,308.415 784.08,306.749 783.5,304.5 Z"/></g>
<g><path style="opacity:1" fill="#b1b1b1" d="M 554.5,305.5 C 556.984,307.8 558.984,310.467 560.5,313.5C 556.62,312.281 554.62,309.615 554.5,305.5 Z"/></g>
<g><path style="opacity:1" fill="#959595" d="M 441.5,309.5 C 443.5,310.833 445.167,312.5 446.5,314.5C 443.833,313.833 442.167,312.167 441.5,309.5 Z"/></g>
<g><path style="opacity:1" fill="#a5a5a5" d="M 491.5,305.5 C 490.232,309.767 487.565,312.767 483.5,314.5C 486.246,311.429 488.913,308.429 491.5,305.5 Z"/></g>
<g><path style="opacity:1" fill="#959595" d="M 614.5,309.5 C 616.5,310.833 618.167,312.5 619.5,314.5C 616.833,313.833 615.167,312.167 614.5,309.5 Z"/></g>
<g><path style="opacity:1" fill="#9d9d9d" d="M 745.5,307.5 C 745.288,310.712 743.621,312.712 740.5,313.5C 742.196,311.475 743.863,309.475 745.5,307.5 Z"/></g>
<g><path style="opacity:1" fill="#b1b1b1" d="M 837.5,305.5 C 837.762,306.978 837.429,308.311 836.5,309.5C 834.142,311.024 832.309,313.024 831,315.5C 829.556,317.155 827.722,317.822 825.5,317.5C 829.881,313.785 833.881,309.785 837.5,305.5 Z"/></g>
<g><path style="opacity:1" fill="#979797" d="M 661.5,309.5 C 660.095,313.236 657.429,315.569 653.5,316.5C 656.141,314.196 658.808,311.862 661.5,309.5 Z"/></g>
<g><path style="opacity:1" fill="#bababa" d="M 624.5,318.5 C 626.5,318.833 628.5,319.167 630.5,319.5C 629.779,323.689 628.113,327.355 625.5,330.5C 626.901,327.296 627.901,323.963 628.5,320.5C 626.517,320.843 625.183,320.176 624.5,318.5 Z"/></g>
<g><path style="opacity:1" fill="#bababa" d="M 653.5,316.5 C 652.375,318.129 651.041,319.629 649.5,321C 646.081,321.248 642.747,321.748 639.5,322.5C 643.93,320.343 648.596,318.343 653.5,316.5 Z"/></g>
<g><path style="opacity:1" fill="#828282" d="M 457.5,319.5 C 459.199,319.34 460.866,319.506 462.5,320C 467.165,327.496 471.165,335.33 474.5,343.5C 472.926,343.063 471.759,342.063 471,340.5C 468.39,334.947 466.057,329.281 464,323.5C 461.987,321.752 459.82,320.418 457.5,319.5 Z"/></g>
<g><path style="opacity:1" fill="#c0c0c0" d="M 825.5,317.5 C 820.394,322.06 814.394,323.56 807.5,322C 806.584,321.722 805.918,321.222 805.5,320.5C 809.514,320.666 813.514,320.499 817.5,320C 819.927,318.409 822.593,317.575 825.5,317.5 Z"/></g>
<g><path style="opacity:1" fill="#878787" d="M 474.5,324.5 C 476.771,326.612 478.104,329.279 478.5,332.5C 476.229,330.388 474.896,327.721 474.5,324.5 Z"/></g>
<g><path style="opacity:1" fill="#adadad" d="M 635.5,332.5 C 634.583,338.019 631.916,342.352 627.5,345.5C 629.418,340.657 632.084,336.323 635.5,332.5 Z"/></g>
<g><path style="opacity:1" fill="#969696" d="M 627.5,345.5 C 627.657,346.873 627.49,348.207 627,349.5C 622.684,353.982 618.184,358.315 613.5,362.5C 618.173,356.828 622.84,351.161 627.5,345.5 Z"/></g>
<g><path style="opacity:1" fill="#949494" d="M 482.5,354.5 C 486.167,357.5 489.5,360.833 492.5,364.5C 488.167,362.167 484.833,358.833 482.5,354.5 Z"/></g>
<g><path style="opacity:1" fill="#5c5c5c" d="M 619.5,341.5 C 614.885,350.449 608.218,357.449 599.5,362.5C 606.869,356.132 613.536,349.132 619.5,341.5 Z"/></g>
<g><path style="opacity:1" fill="#acacac" d="M 504.5,362.5 C 509.711,363.929 514.044,366.596 517.5,370.5C 512.321,369.083 507.988,366.417 504.5,362.5 Z"/></g>
<g><path style="opacity:1" fill="#9d9d9d" d="M 613.5,362.5 C 612.089,364.914 610.089,366.581 607.5,367.5C 608.911,365.086 610.911,363.419 613.5,362.5 Z"/></g>
<g><path style="opacity:1" fill="#8b8b8b" d="M 517.5,370.5 C 519.898,370.259 521.898,370.926 523.5,372.5C 521.102,372.741 519.102,372.074 517.5,370.5 Z"/></g>
<g><path style="opacity:1" fill="#b7b7b7" d="M 607.5,367.5 C 605.691,371.241 602.691,373.241 598.5,373.5C 600.975,370.759 603.975,368.759 607.5,367.5 Z"/></g>
<g><path style="opacity:1" fill="#979797" d="M 598.5,373.5 C 596.349,376.415 593.349,378.082 589.5,378.5C 592.008,376.076 595.008,374.41 598.5,373.5 Z"/></g>
<g><path style="opacity:1" fill="#bebebe" d="M 584.5,370.5 C 582.779,372.694 580.445,373.861 577.5,374C 559.157,379.164 541.157,378.664 523.5,372.5C 544.012,377.041 564.345,376.375 584.5,370.5 Z"/></g>
<g><path style="opacity:1" fill="#afafaf" d="M 503.5,372.5 C 507.508,374.837 511.508,377.17 515.5,379.5C 510.11,379.386 506.11,377.052 503.5,372.5 Z"/></g>
<g><path style="opacity:1" fill="#9b9b9b" d="M 589.5,378.5 C 588.365,380.213 586.698,380.88 584.5,380.5C 585.635,378.787 587.302,378.12 589.5,378.5 Z"/></g>
<g><path style="opacity:1" fill="#848484" d="M 515.5,379.5 C 517.898,379.259 519.898,379.926 521.5,381.5C 519.102,381.741 517.102,381.074 515.5,379.5 Z"/></g>
<g><path style="opacity:1" fill="#787878" d="M 584.5,380.5 C 582.485,381.924 580.152,382.59 577.5,382.5C 579.515,381.076 581.848,380.41 584.5,380.5 Z"/></g>
<g><path style="opacity:1" fill="#8c8c8c" d="M 577.5,382.5 C 577.03,383.693 576.03,384.36 574.5,384.5C 569.534,385.331 564.534,385.664 559.5,385.5C 565.392,384.636 571.392,383.636 577.5,382.5 Z"/></g>
<g><path style="opacity:1" fill="#717171" d="M 521.5,381.5 C 533.991,384.311 546.658,385.644 559.5,385.5C 546.481,387.665 533.814,386.332 521.5,381.5 Z"/></g>
<g><path style="opacity:1" fill="#2b2b2b" d="M 357.5,454.5 C 362.159,454.015 363.492,455.848 361.5,460C 360.216,460.684 359.049,460.517 358,459.5C 357.506,457.866 357.34,456.199 357.5,454.5 Z"/></g>
<g><path style="opacity:1" fill="#2b2b2b" d="M 466.5,454.5 C 471.159,454.015 472.492,455.848 470.5,460C 469.216,460.684 468.049,460.517 467,459.5C 466.506,457.866 466.34,456.199 466.5,454.5 Z"/></g>
<g><path style="opacity:1" fill="#1b1b1b" d="M 557.5,455.5 C 558.833,456.833 558.833,458.167 557.5,459.5C 556.5,459.5 555.5,459.5 554.5,459.5C 554.5,458.167 554.5,456.833 554.5,455.5C 555.5,455.5 556.5,455.5 557.5,455.5 Z"/></g>
<g><path style="opacity:1" fill="#535353" d="M 557.5,455.5 C 556.5,455.5 555.5,455.5 554.5,455.5C 554.5,456.833 554.5,458.167 554.5,459.5C 555.5,459.5 556.5,459.5 557.5,459.5C 553.014,461.177 551.681,459.677 553.5,455C 555.066,454.235 556.399,454.402 557.5,455.5 Z"/></g>
<g><path style="opacity:1" fill="#010101" d="M 946.5,471.5 C 945.596,472.209 945.263,473.209 945.5,474.5C 944.834,479.017 944.167,483.683 943.5,488.5C 942.167,477.833 942.167,467.167 943.5,456.5C 944.328,460.796 944.828,465.129 945,469.5C 945.717,470.044 946.217,470.711 946.5,471.5 Z"/></g>
<g><path style="opacity:1" fill="#1b1b1b" d="M 338.5,478.5 C 340.785,475.665 342.118,472.332 342.5,468.5C 343.117,468.389 343.617,468.056 344,467.5C 344.679,464.45 345.512,461.45 346.5,458.5C 348.5,457.167 350.5,457.167 352.5,458.5C 352.137,459.183 351.804,459.85 351.5,460.5C 349.935,462.509 348.935,464.843 348.5,467.5C 348.443,468.609 348.11,469.609 347.5,470.5C 345.528,473.084 344.528,476.084 344.5,479.5C 341.819,482.192 340.486,485.525 340.5,489.5C 338.167,489.5 335.833,489.5 333.5,489.5C 333.655,486.284 332.655,483.617 330.5,481.5C 330.741,479.102 330.074,477.102 328.5,475.5C 326.453,469.239 324.12,463.239 321.5,457.5C 323.604,457.201 325.604,457.534 327.5,458.5C 329.745,465.251 332.245,471.918 335,478.5C 336.554,480.927 337.721,480.927 338.5,478.5 Z"/></g>
<g><path style="opacity:1" fill="#191919" d="M 539.5,465.5 C 541.5,465.5 543.5,465.5 545.5,465.5C 545.5,466.5 545.5,467.5 545.5,468.5C 543.5,468.5 541.5,468.5 539.5,468.5C 539.334,473.844 539.501,479.177 540,484.5C 542.381,485.435 544.881,485.768 547.5,485.5C 547.64,487.124 546.973,488.29 545.5,489C 542.177,489.932 539.177,489.432 536.5,487.5C 535.91,481.034 535.243,474.7 534.5,468.5C 533.833,468.5 533.167,468.5 532.5,468.5C 532.5,467.5 532.5,466.5 532.5,465.5C 533.5,465.5 534.5,465.5 535.5,465.5C 535.5,463.167 535.5,460.833 535.5,458.5C 536.5,458.5 537.5,458.5 538.5,458.5C 538.198,461.059 538.532,463.393 539.5,465.5 Z"/></g>
<g><path style="opacity:1" fill="#1e1e1e" d="M 677.5,455.5 C 679.048,455.821 679.715,456.821 679.5,458.5C 673.073,456.762 670.406,459.095 671.5,465.5C 673.5,465.5 675.5,465.5 677.5,465.5C 677.5,466.5 677.5,467.5 677.5,468.5C 675.5,468.5 673.5,468.5 671.5,468.5C 671.5,475.5 671.5,482.5 671.5,489.5C 669.833,489.5 668.167,489.5 666.5,489.5C 666.5,482.5 666.5,475.5 666.5,468.5C 663.662,466.694 663.995,465.694 667.5,465.5C 667.167,458.5 670.5,455.167 677.5,455.5 Z"/></g>
<g><path style="opacity:1" fill="#191919" d="M 899.5,465.5 C 901.5,465.5 903.5,465.5 905.5,465.5C 905.5,466.5 905.5,467.5 905.5,468.5C 903.5,468.5 901.5,468.5 899.5,468.5C 899.334,473.844 899.501,479.177 900,484.5C 902.381,485.435 904.881,485.768 907.5,485.5C 907.126,488.62 905.293,489.954 902,489.5C 898.483,489.473 896.316,487.807 895.5,484.5C 895.5,479.167 895.5,473.833 895.5,468.5C 894.5,468.5 893.5,468.5 892.5,468.5C 892.5,467.5 892.5,466.5 892.5,465.5C 893.5,465.5 894.5,465.5 895.5,465.5C 895.5,463.167 895.5,460.833 895.5,458.5C 896.5,458.5 897.5,458.5 898.5,458.5C 898.198,461.059 898.532,463.393 899.5,465.5 Z"/></g>
<g><path style="opacity:1" fill="#5d5d5d" d="M 539.5,465.5 C 538.532,463.393 538.198,461.059 538.5,458.5C 537.5,458.5 536.5,458.5 535.5,458.5C 535.5,460.833 535.5,463.167 535.5,465.5C 534.5,465.5 533.5,465.5 532.5,465.5C 532.5,466.5 532.5,467.5 532.5,468.5C 531.566,467.432 531.232,466.099 531.5,464.5C 532.5,464.5 533.5,464.5 534.5,464.5C 534.5,462.167 534.5,459.833 534.5,457.5C 536.167,457.5 537.833,457.5 539.5,457.5C 539.5,460.167 539.5,462.833 539.5,465.5 Z"/></g>
<g><path style="opacity:1" fill="#626262" d="M 677.5,455.5 C 670.5,455.167 667.167,458.5 667.5,465.5C 663.995,465.694 663.662,466.694 666.5,468.5C 665.5,468.5 664.5,468.5 663.5,468.5C 663.5,467.167 663.5,465.833 663.5,464.5C 664.5,464.5 665.5,464.5 666.5,464.5C 666.444,456.534 670.111,453.534 677.5,455.5 Z"/></g>
<g><path style="opacity:1" fill="#8e8e8e" d="M 351.5,460.5 C 351.834,463.491 350.834,465.824 348.5,467.5C 348.935,464.843 349.935,462.509 351.5,460.5 Z"/></g>
<g><path style="opacity:1" fill="#a8a8a8" d="M 457.5,489.5 C 457.5,478.167 457.5,466.833 457.5,455.5C 456.5,455.5 455.5,455.5 454.5,455.5C 454.5,466.833 454.5,478.167 454.5,489.5C 452.522,478.215 451.855,466.548 452.5,454.5C 454.833,454.5 457.167,454.5 459.5,454.5C 460.145,466.548 459.478,478.215 457.5,489.5 Z"/></g>
<g><path style="opacity:1" fill="#070707" d="M 457.5,489.5 C 456.5,489.5 455.5,489.5 454.5,489.5C 454.5,478.167 454.5,466.833 454.5,455.5C 455.5,455.5 456.5,455.5 457.5,455.5C 457.5,466.833 457.5,478.167 457.5,489.5 Z"/></g>
<g><path style="opacity:1" fill="#9b9b9b" d="M 947.5,467.5 C 947.44,468.043 947.107,468.376 946.5,468.5C 945.508,464.217 945.174,459.884 945.5,455.5C 944.167,455.5 942.833,455.5 941.5,455.5C 941.5,466.833 941.5,478.167 941.5,489.5C 942.833,489.5 944.167,489.5 945.5,489.5C 944.081,490.451 942.415,490.784 940.5,490.5C 940.5,478.5 940.5,466.5 940.5,454.5C 942.5,454.5 944.5,454.5 946.5,454.5C 946.182,459.032 946.515,463.366 947.5,467.5 Z"/></g>
<g><path style="opacity:1" fill="#868686" d="M 382.5,465.5 C 379.43,465.368 376.43,465.701 373.5,466.5C 373.611,465.883 373.944,465.383 374.5,465C 377.367,464.199 380.034,464.366 382.5,465.5 Z"/></g>
<g><path style="opacity:1" fill="#a1a1a1" d="M 497.5,470.5 C 497.5,468.833 497.5,467.167 497.5,465.5C 491.5,465.5 485.5,465.5 479.5,465.5C 479.5,466.5 479.5,467.5 479.5,468.5C 483.5,468.5 487.5,468.5 491.5,468.5C 491.737,469.791 491.404,470.791 490.5,471.5C 486.971,469.577 482.971,468.911 478.5,469.5C 478.5,467.833 478.5,466.167 478.5,464.5C 485.167,464.5 491.833,464.5 498.5,464.5C 498.795,466.735 498.461,468.735 497.5,470.5 Z"/></g>
<g><path style="opacity:1" fill="#787878" d="M 518.5,465.5 C 515.14,465.616 511.807,465.949 508.5,466.5C 510.117,465.028 512.117,464.361 514.5,464.5C 516.045,464.511 517.378,464.844 518.5,465.5 Z"/></g>
<g><path style="opacity:1" fill="#828282" d="M 642.5,466.5 C 638.833,465.167 635.167,465.167 631.5,466.5C 631.611,465.883 631.944,465.383 632.5,465C 635.5,464.333 638.5,464.333 641.5,465C 642.056,465.383 642.389,465.883 642.5,466.5 Z"/></g>
<g><path style="opacity:1" fill="#7c7c7c" d="M 717.5,465.5 C 714.098,465.342 710.764,465.676 707.5,466.5C 707.611,465.883 707.944,465.383 708.5,465C 711.696,464.195 714.696,464.362 717.5,465.5 Z"/></g>
<g><path style="opacity:1" fill="#6f6f6f" d="M 767.5,465.5 C 764.763,465.401 762.096,465.735 759.5,466.5C 760.492,464.974 761.992,464.307 764,464.5C 765.385,464.514 766.551,464.848 767.5,465.5 Z"/></g>
<g><path style="opacity:1" fill="#949494" d="M 826.5,465.5 C 829.304,464.362 832.304,464.195 835.5,465C 837.32,465.2 838.653,466.034 839.5,467.5C 835.326,465.936 830.993,465.269 826.5,465.5 Z"/></g>
<g><path style="opacity:1" fill="#8b8b8b" d="M 921.5,465.5 C 923.966,464.366 926.633,464.199 929.5,465C 931.32,465.2 932.653,466.034 933.5,467.5C 929.658,465.998 925.658,465.332 921.5,465.5 Z"/></g>
<g><path style="opacity:1" fill="#1e1e1e" d="M 427.5,476.5 C 432.103,475.617 436.77,475.283 441.5,475.5C 441.768,473.901 441.434,472.568 440.5,471.5C 436.916,467.911 432.916,467.578 428.5,470.5C 425.921,469.112 425.921,467.612 428.5,466C 433.257,465.19 437.924,465.524 442.5,467C 443.333,467.833 444.167,468.667 445,469.5C 445.5,476.158 445.666,482.825 445.5,489.5C 443.43,489.551 441.597,488.885 440,487.5C 436.085,489.476 431.918,489.976 427.5,489C 424.735,486.005 423.902,482.505 425,478.5C 425.708,477.619 426.542,476.953 427.5,476.5 Z"/></g>
<g><path style="opacity:1" fill="#1c1c1c" d="M 518.5,465.5 C 521.155,466.001 523.322,467.334 525,469.5C 525.5,476.158 525.666,482.825 525.5,489.5C 524.167,489.5 522.833,489.5 521.5,489.5C 521.719,488.325 521.386,487.325 520.5,486.5C 516.608,489.326 512.275,490.159 507.5,489C 505.859,487.871 504.859,486.371 504.5,484.5C 504.34,482.801 504.506,481.134 505,479.5C 506.376,478.295 507.542,476.962 508.5,475.5C 512.833,475.5 517.167,475.5 521.5,475.5C 521.768,473.901 521.434,472.568 520.5,471.5C 519.102,469.467 517.102,468.467 514.5,468.5C 511.822,469.175 509.156,469.842 506.5,470.5C 506.157,468.517 506.824,467.183 508.5,466.5C 511.807,465.949 515.14,465.616 518.5,465.5 Z"/></g>
<g><path style="opacity:1" fill="#1e1e1e" d="M 565.5,481.5 C 565.342,478.098 565.676,474.764 566.5,471.5C 569.174,465.332 573.84,463.166 580.5,465C 590.224,468.483 592.724,474.983 588,484.5C 582.505,490.131 576.339,490.964 569.5,487C 568.023,485.188 566.69,483.355 565.5,481.5 Z"/></g>
<g><path style="opacity:1" fill="#1b1b1b" d="M 717.5,465.5 C 725.34,468.459 728.173,474.126 726,482.5C 722.345,489.07 716.845,491.237 709.5,489C 707.182,487.847 705.182,486.347 703.5,484.5C 702.167,479.833 702.167,475.167 703.5,470.5C 704.326,468.736 705.659,467.402 707.5,466.5C 710.764,465.676 714.098,465.342 717.5,465.5 Z"/></g>
<g><path style="opacity:1" fill="#131313" d="M 878.5,465.5 C 878.833,465.5 879.167,465.5 879.5,465.5C 881.142,466.803 882.809,468.136 884.5,469.5C 884.83,475.868 884.496,482.202 883.5,488.5C 882.818,487.757 882.151,487.091 881.5,486.5C 876.371,490.013 871.038,490.346 865.5,487.5C 863.882,483.898 864.215,480.565 866.5,477.5C 867.167,476.833 867.833,476.167 868.5,475.5C 872.833,475.5 877.167,475.5 881.5,475.5C 881.768,473.901 881.434,472.568 880.5,471.5C 879.564,470.026 878.23,469.026 876.5,468.5C 874.708,467.691 872.708,467.191 870.5,467C 873.014,465.748 875.68,465.248 878.5,465.5 Z"/></g>
<g><path style="opacity:1" fill="#2a2a2a" d="M 357.5,465.5 C 359.167,465.5 360.833,465.5 362.5,465.5C 362.5,473.5 362.5,481.5 362.5,489.5C 360.833,489.5 359.167,489.5 357.5,489.5C 357.5,481.5 357.5,473.5 357.5,465.5 Z"/></g>
<g><path style="opacity:1" fill="#1a1a1a" d="M 398.5,465.5 C 398.334,471.176 398.501,476.843 399,482.5C 399.383,483.056 399.883,483.389 400.5,483.5C 400.833,484.5 401.5,485.167 402.5,485.5C 404.631,486.314 406.964,486.814 409.5,487C 408.619,487.708 407.953,488.542 407.5,489.5C 402.777,490.447 398.944,489.114 396,485.5C 394.58,478.95 394.08,472.284 394.5,465.5C 395.833,465.5 397.167,465.5 398.5,465.5 Z"/></g>
<g><path style="opacity:1" fill="#181818" d="M 416.5,465.5 C 416.5,473.167 416.5,480.833 416.5,488.5C 415.5,488.5 414.5,488.5 413.5,488.5C 413.608,486.486 412.942,484.82 411.5,483.5C 412.413,477.559 412.746,471.559 412.5,465.5C 413.833,465.5 415.167,465.5 416.5,465.5 Z"/></g>
<g><path style="opacity:1" fill="#282828" d="M 466.5,465.5 C 468.167,465.5 469.833,465.5 471.5,465.5C 471.5,473.5 471.5,481.5 471.5,489.5C 469.833,489.5 468.167,489.5 466.5,489.5C 466.5,481.5 466.5,473.5 466.5,465.5 Z"/></g>
<g><path style="opacity:1" fill="#181818" d="M 497.5,470.5 C 494.097,472.9 491.43,475.9 489.5,479.5C 487.833,480.5 486.5,481.833 485.5,483.5C 484.596,484.209 484.263,485.209 484.5,486.5C 489.167,486.5 493.833,486.5 498.5,486.5C 498.5,487.5 498.5,488.5 498.5,489.5C 491.833,489.5 485.167,489.5 478.5,489.5C 478.517,487.435 478.85,485.435 479.5,483.5C 482.826,479.174 486.493,475.174 490.5,471.5C 491.404,470.791 491.737,469.791 491.5,468.5C 487.5,468.5 483.5,468.5 479.5,468.5C 479.5,467.5 479.5,466.5 479.5,465.5C 485.5,465.5 491.5,465.5 497.5,465.5C 497.5,467.167 497.5,468.833 497.5,470.5 Z"/></g>
<g><path style="opacity:1" fill="#0b0b0b" d="M 598.5,465.5 C 599.833,465.5 601.167,465.5 602.5,465.5C 602.667,468.957 603.667,469.29 605.5,466.5C 610.996,464.499 615.662,465.499 619.5,469.5C 619.5,475.833 619.5,482.167 619.5,488.5C 618.5,488.5 617.5,488.5 616.5,488.5C 616.821,483.305 616.487,478.305 615.5,473.5C 614.236,468.921 611.236,467.421 606.5,469C 605.269,470.405 603.936,471.571 602.5,472.5C 601.512,477.64 601.179,482.974 601.5,488.5C 600.5,488.5 599.5,488.5 598.5,488.5C 598.5,480.833 598.5,473.167 598.5,465.5 Z"/></g>
<g><path style="opacity:1" fill="#8e8e8e" d="M 690.5,467.5 C 690.631,468.376 690.298,469.043 689.5,469.5C 688.571,468.311 688.238,466.978 688.5,465.5C 687.167,465.5 685.833,465.5 684.5,465.5C 684.5,473.167 684.5,480.833 684.5,488.5C 685.568,489.434 686.901,489.768 688.5,489.5C 687.081,490.451 685.415,490.784 683.5,490.5C 683.5,481.833 683.5,473.167 683.5,464.5C 685.5,464.5 687.5,464.5 689.5,464.5C 689.263,465.791 689.596,466.791 690.5,467.5 Z"/></g>
<g><path style="opacity:1" fill="#111111" d="M 690.5,467.5 C 692.142,465.919 694.142,465.253 696.5,465.5C 696.5,466.833 696.5,468.167 696.5,469.5C 693.188,469.149 690.855,470.482 689.5,473.5C 688.883,473.611 688.383,473.944 688,474.5C 687.501,479.155 687.334,483.821 687.5,488.5C 686.5,488.5 685.5,488.5 684.5,488.5C 684.5,480.833 684.5,473.167 684.5,465.5C 685.833,465.5 687.167,465.5 688.5,465.5C 688.238,466.978 688.571,468.311 689.5,469.5C 690.298,469.043 690.631,468.376 690.5,467.5 Z"/></g>
<g><path style="opacity:1" fill="#080808" d="M 734.5,465.5 C 735.5,465.5 736.5,465.5 737.5,465.5C 737.5,466.833 737.5,468.167 737.5,469.5C 738.791,469.263 739.791,469.596 740.5,470.5C 739.833,471.5 739.167,472.5 738.5,473.5C 737.513,478.305 737.179,483.305 737.5,488.5C 736.5,488.5 735.5,488.5 734.5,488.5C 734.5,480.833 734.5,473.167 734.5,465.5 Z"/></g>
<g><path style="opacity:1" fill="#1e1e1e" d="M 826.5,465.5 C 830.993,465.269 835.326,465.936 839.5,467.5C 839.516,469.484 838.516,470.484 836.5,470.5C 823.046,467.614 819.38,472.281 825.5,484.5C 829.546,485.957 833.379,485.623 837,483.5C 838.946,483.763 839.612,484.763 839,486.5C 833.672,490.061 828.172,490.394 822.5,487.5C 819.074,483.532 817.74,478.865 818.5,473.5C 819.464,469.203 822.13,466.536 826.5,465.5 Z"/></g>
<g><path style="opacity:1" fill="#101010" d="M 847.5,465.5 C 848.833,465.5 850.167,465.5 851.5,465.5C 851.367,470.272 852.7,470.438 855.5,466C 856.793,465.51 858.127,465.343 859.5,465.5C 859.5,466.833 859.5,468.167 859.5,469.5C 855.411,469.588 852.744,471.588 851.5,475.5C 850.515,479.634 850.182,483.968 850.5,488.5C 849.5,488.5 848.5,488.5 847.5,488.5C 847.5,480.833 847.5,473.167 847.5,465.5 Z"/></g>
<g><path style="opacity:1" fill="#939393" d="M 879.5,465.5 C 882.546,465.183 884.213,466.516 884.5,469.5C 882.809,468.136 881.142,466.803 879.5,465.5 Z"/></g>
<g><path style="opacity:1" fill="#1c1c1c" d="M 921.5,465.5 C 925.658,465.332 929.658,465.998 933.5,467.5C 933.5,468.5 933.5,469.5 933.5,470.5C 929.181,469.751 924.848,469.585 920.5,470C 915.233,474.878 915.233,479.878 920.5,485C 924.372,485.891 928.038,485.391 931.5,483.5C 933.101,484.035 933.601,485.035 933,486.5C 924.345,491.763 917.512,490.097 912.5,481.5C 912.342,478.098 912.676,474.764 913.5,471.5C 913.414,470.504 913.748,469.671 914.5,469C 916.527,467.121 918.86,465.954 921.5,465.5 Z"/></g>
<g><path style="opacity:1" fill="#252525" d="M 947.5,467.5 C 950.643,464.429 954.31,463.762 958.5,465.5C 959.425,466.357 960.092,467.357 960.5,468.5C 959.5,468.833 958.833,469.5 958.5,470.5C 954.246,468.868 950.246,469.201 946.5,471.5C 946.217,470.711 945.717,470.044 945,469.5C 944.828,465.129 944.328,460.796 943.5,456.5C 942.167,467.167 942.167,477.833 943.5,488.5C 944.167,483.683 944.834,479.017 945.5,474.5C 945.5,479.5 945.5,484.5 945.5,489.5C 944.167,489.5 942.833,489.5 941.5,489.5C 941.5,478.167 941.5,466.833 941.5,455.5C 942.833,455.5 944.167,455.5 945.5,455.5C 945.174,459.884 945.508,464.217 946.5,468.5C 947.107,468.376 947.44,468.043 947.5,467.5 Z"/></g>
<g><path style="opacity:1" fill="#1a1a1a" d="M 382.5,465.5 C 383.833,465.833 385.167,466.167 386.5,466.5C 386.5,467.5 386.5,468.5 386.5,469.5C 382.869,468.588 379.203,468.421 375.5,469C 374.62,470.356 374.286,471.856 374.5,473.5C 375.5,473.5 376.5,473.5 377.5,473.5C 381.053,475.035 384.386,477.035 387.5,479.5C 387.599,482.237 387.265,484.904 386.5,487.5C 381.135,490.161 375.802,490.161 370.5,487.5C 370.5,486.5 370.5,485.5 370.5,484.5C 372.91,485.389 375.41,486.055 378,486.5C 379.385,486.486 380.551,486.152 381.5,485.5C 383.344,484.796 383.844,483.463 383,481.5C 378.54,479.937 374.54,477.604 371,474.5C 369.834,471.073 370.668,468.407 373.5,466.5C 376.43,465.701 379.43,465.368 382.5,465.5 Z"/></g>
<g><path style="opacity:1" fill="#878787" d="M 734.5,465.5 C 734.5,473.167 734.5,480.833 734.5,488.5C 735.568,489.434 736.901,489.768 738.5,489.5C 737.081,490.451 735.415,490.784 733.5,490.5C 733.174,481.983 733.507,473.65 734.5,465.5 Z"/></g>
<g><path style="opacity:1" fill="#3c3c3c" d="M 878.5,465.5 C 875.68,465.248 873.014,465.748 870.5,467C 872.708,467.191 874.708,467.691 876.5,468.5C 873.027,468.576 869.694,469.242 866.5,470.5C 866.241,467.52 867.574,465.687 870.5,465C 873.367,464.199 876.034,464.366 878.5,465.5 Z"/></g>
<g><path style="opacity:1" fill="#525252" d="M 398.5,465.5 C 399.248,471.366 399.914,477.366 400.5,483.5C 399.883,483.389 399.383,483.056 399,482.5C 398.501,476.843 398.334,471.176 398.5,465.5 Z"/></g>
<g><path style="opacity:1" fill="#484848" d="M 737.5,465.5 C 738.158,466.398 738.824,467.398 739.5,468.5C 740.183,468.137 740.85,467.804 741.5,467.5C 743.833,468.167 746.167,468.833 748.5,469.5C 745.721,469.279 743.054,469.612 740.5,470.5C 739.791,469.596 738.791,469.263 737.5,469.5C 737.5,468.167 737.5,466.833 737.5,465.5 Z"/></g>
<g><path style="opacity:1" fill="#121212" d="M 751.5,465.5 C 752.479,467.145 753.812,468.479 755.5,469.5C 756.522,469.145 757.189,468.478 757.5,467.5C 757.842,466.662 758.508,466.328 759.5,466.5C 762.096,465.735 764.763,465.401 767.5,465.5C 769.332,466.248 770.999,467.248 772.5,468.5C 773.427,475.443 773.76,482.443 773.5,489.5C 772.167,489.5 770.833,489.5 769.5,489.5C 769.666,483.491 769.499,477.491 769,471.5C 768.292,470.619 767.458,469.953 766.5,469.5C 766.167,469.5 765.833,469.5 765.5,469.5C 764.726,468.853 763.726,468.52 762.5,468.5C 760.645,468.34 759.312,469.007 758.5,470.5C 757.542,470.953 756.708,471.619 756,472.5C 755.501,478.157 755.334,483.824 755.5,489.5C 754.167,489.5 752.833,489.5 751.5,489.5C 751.83,483.132 751.496,476.798 750.5,470.5C 749.817,470.137 749.15,469.804 748.5,469.5C 746.167,468.833 743.833,468.167 741.5,467.5C 744.337,465.598 747.671,464.931 751.5,465.5 Z"/></g>
<g><path style="opacity:1" fill="#969696" d="M 751.5,465.5 C 753.315,466.63 755.315,467.296 757.5,467.5C 757.189,468.478 756.522,469.145 755.5,469.5C 753.812,468.479 752.479,467.145 751.5,465.5 Z"/></g>
<g><path style="opacity:1" fill="#858585" d="M 765.5,469.5 C 763.097,469.448 760.764,469.781 758.5,470.5C 759.312,469.007 760.645,468.34 762.5,468.5C 763.726,468.52 764.726,468.853 765.5,469.5 Z"/></g>
<g><path style="opacity:1" fill="#1e1e1e" d="M 810.5,466.5 C 810.5,467.5 810.5,468.5 810.5,469.5C 806.869,468.588 803.203,468.421 799.5,469C 798.62,470.356 798.286,471.856 798.5,473.5C 799.5,473.5 800.5,473.5 801.5,473.5C 805.132,474.94 808.465,476.94 811.5,479.5C 811.833,480.5 812.167,481.5 812.5,482.5C 811.909,484.742 810.909,486.742 809.5,488.5C 805.167,489.833 800.833,489.833 796.5,488.5C 794.748,488.582 793.748,487.749 793.5,486C 793.748,484.251 794.748,483.418 796.5,483.5C 799.204,486.303 802.537,487.137 806.5,486C 809.124,484.031 809.124,482.198 806.5,480.5C 801.754,480.211 797.921,478.211 795,474.5C 793.877,471.044 794.71,468.21 797.5,466C 801.887,465.294 806.22,465.46 810.5,466.5 Z"/></g>
<g><path style="opacity:1" fill="#070707" d="M 960.5,468.5 C 962.048,468.821 962.715,469.821 962.5,471.5C 962.5,477.167 962.5,482.833 962.5,488.5C 961.5,488.5 960.5,488.5 959.5,488.5C 959.821,482.974 959.488,477.64 958.5,472.5C 958.5,471.833 958.5,471.167 958.5,470.5C 958.833,469.5 959.5,468.833 960.5,468.5 Z"/></g>
<g><path style="opacity:1" fill="#c4c4c4" d="M 386.5,466.5 C 387.434,467.568 387.768,468.901 387.5,470.5C 383.774,470.177 380.107,470.511 376.5,471.5C 376.863,472.183 377.196,472.85 377.5,473.5C 376.5,473.5 375.5,473.5 374.5,473.5C 374.286,471.856 374.62,470.356 375.5,469C 379.203,468.421 382.869,468.588 386.5,469.5C 386.5,468.5 386.5,467.5 386.5,466.5 Z"/></g>
<g><path style="opacity:1" fill="#c0c0c0" d="M 718.5,470.5 C 709.167,468.5 705.5,472.167 707.5,481.5C 705.022,478.47 704.855,475.137 707,471.5C 710.679,468.018 714.512,467.685 718.5,470.5 Z"/></g>
<g><path style="opacity:1" fill="#bababa" d="M 810.5,466.5 C 811.434,467.568 811.768,468.901 811.5,470.5C 807.774,470.177 804.107,470.511 800.5,471.5C 800.863,472.183 801.196,472.85 801.5,473.5C 800.5,473.5 799.5,473.5 798.5,473.5C 798.286,471.856 798.62,470.356 799.5,469C 803.203,468.421 806.869,468.588 810.5,469.5C 810.5,468.5 810.5,467.5 810.5,466.5 Z"/></g>
<g><path style="opacity:1" fill="#f3f3f3" d="M 583.5,470.5 C 587.363,474.896 587.363,479.396 583.5,484C 578.31,486.653 573.977,485.82 570.5,481.5C 569.686,471.643 574.019,467.976 583.5,470.5 Z"/></g>
<g><path style="opacity:1" fill="#a6a6a6" d="M 639.5,469.5 C 635.759,468.599 633.759,469.932 633.5,473.5C 635.553,473.402 637.22,474.069 638.5,475.5C 633.582,475.828 631.582,473.495 632.5,468.5C 635.059,468.198 637.393,468.532 639.5,469.5 Z"/></g>
<g><path style="opacity:1" fill="#f6f6f6" d="M 718.5,470.5 C 723.242,474.205 723.742,478.538 720,483.5C 716.744,485.429 713.244,485.929 709.5,485C 708.177,484.184 707.511,483.017 707.5,481.5C 705.5,472.167 709.167,468.5 718.5,470.5 Z"/></g>
<g><path style="opacity:1" fill="#727272" d="M 899.5,465.5 C 898.532,463.393 898.198,461.059 898.5,458.5C 897.5,458.5 896.5,458.5 895.5,458.5C 895.5,460.833 895.5,463.167 895.5,465.5C 894.5,465.5 893.5,465.5 892.5,465.5C 892.5,466.5 892.5,467.5 892.5,468.5C 893.5,468.5 894.5,468.5 895.5,468.5C 895.5,473.833 895.5,479.167 895.5,484.5C 894.513,479.695 894.179,474.695 894.5,469.5C 893.5,469.5 892.5,469.5 891.5,469.5C 891.5,467.833 891.5,466.167 891.5,464.5C 892.5,464.5 893.5,464.5 894.5,464.5C 894.5,462.167 894.5,459.833 894.5,457.5C 896.167,457.5 897.833,457.5 899.5,457.5C 899.5,460.167 899.5,462.833 899.5,465.5 Z"/></g>
<g><path style="opacity:1" fill="#525252" d="M 416.5,465.5 C 417.492,473.316 417.826,481.316 417.5,489.5C 415.833,489.5 414.167,489.5 412.5,489.5C 412.719,488.325 412.386,487.325 411.5,486.5C 410.717,488.288 409.384,489.288 407.5,489.5C 407.953,488.542 408.619,487.708 409.5,487C 406.964,486.814 404.631,486.314 402.5,485.5C 405.838,485.935 408.838,485.268 411.5,483.5C 412.942,484.82 413.608,486.486 413.5,488.5C 414.5,488.5 415.5,488.5 416.5,488.5C 416.5,480.833 416.5,473.167 416.5,465.5 Z"/></g>
<g><path style="opacity:1" fill="#7b7b7b" d="M 534.5,468.5 C 535.243,474.7 535.91,481.034 536.5,487.5C 535.883,487.389 535.383,487.056 535,486.5C 534.501,480.509 534.334,474.509 534.5,468.5 Z"/></g>
<g><path style="opacity:1" fill="#333333" d="M 553.5,465.5 C 554.833,465.5 556.167,465.5 557.5,465.5C 557.5,473.5 557.5,481.5 557.5,489.5C 556.167,489.5 554.833,489.5 553.5,489.5C 553.5,481.5 553.5,473.5 553.5,465.5 Z"/></g>
<g><path style="opacity:1" fill="#000000" d="M 554.5,466.5 C 555.822,469.768 556.489,473.435 556.5,477.5C 556.167,481.167 555.833,484.833 555.5,488.5C 554.503,481.197 554.169,473.863 554.5,466.5 Z"/></g>
<g><path style="opacity:1" fill="#6a6a6a" d="M 631.5,466.5 C 629.016,468.545 628.016,471.212 628.5,474.5C 627.378,472.712 627.211,470.712 628,468.5C 628.816,467.177 629.983,466.511 631.5,466.5 Z"/></g>
<g><path style="opacity:1" fill="#9b9b9b" d="M 347.5,470.5 C 347.31,473.855 346.31,476.855 344.5,479.5C 344.528,476.084 345.528,473.084 347.5,470.5 Z"/></g>
<g><path style="opacity:1" fill="#979797" d="M 342.5,468.5 C 342.118,472.332 340.785,475.665 338.5,478.5C 339.267,474.851 340.6,471.518 342.5,468.5 Z"/></g>
<g><path style="opacity:1" fill="#9c9c9c" d="M 440.5,471.5 C 441.434,472.568 441.768,473.901 441.5,475.5C 436.77,475.283 432.103,475.617 427.5,476.5C 427.611,475.883 427.944,475.383 428.5,475C 432.486,474.501 436.486,474.334 440.5,474.5C 440.5,473.5 440.5,472.5 440.5,471.5 Z"/></g>
<g><path style="opacity:1" fill="#a4a4a4" d="M 497.5,470.5 C 495.57,474.1 492.903,477.1 489.5,479.5C 491.43,475.9 494.097,472.9 497.5,470.5 Z"/></g>
<g><path style="opacity:1" fill="#9a9a9a" d="M 520.5,471.5 C 521.434,472.568 521.768,473.901 521.5,475.5C 517.167,475.5 512.833,475.5 508.5,475.5C 512.298,474.517 516.298,474.183 520.5,474.5C 520.5,473.5 520.5,472.5 520.5,471.5 Z"/></g>
<g><path style="opacity:1" fill="#1c1c1c" d="M 642.5,466.5 C 644.048,466.821 644.715,467.821 644.5,469.5C 642.833,469.5 641.167,469.5 639.5,469.5C 637.393,468.532 635.059,468.198 632.5,468.5C 631.582,473.495 633.582,475.828 638.5,475.5C 640.645,476.989 642.978,477.989 645.5,478.5C 646.382,482.909 645.048,486.409 641.5,489C 636.761,489.726 632.095,489.393 627.5,488C 626.483,486.951 626.316,485.784 627,484.5C 628.292,483.209 629.458,483.209 630.5,484.5C 631.946,485.94 633.779,486.607 636,486.5C 637.385,486.486 638.551,486.152 639.5,485.5C 641.273,484.686 641.773,483.352 641,481.5C 638.002,479.919 634.835,478.753 631.5,478C 630.29,476.961 629.29,475.794 628.5,474.5C 628.016,471.212 629.016,468.545 631.5,466.5C 635.167,465.167 638.833,465.167 642.5,466.5 Z"/></g>
<g><path style="opacity:1" fill="#9a9a9a" d="M 880.5,471.5 C 881.434,472.568 881.768,473.901 881.5,475.5C 877.167,475.5 872.833,475.5 868.5,475.5C 872.298,474.517 876.298,474.183 880.5,474.5C 880.5,473.5 880.5,472.5 880.5,471.5 Z"/></g>
<g><path style="opacity:1" fill="#545454" d="M 619.5,469.5 C 620.491,475.979 620.824,482.646 620.5,489.5C 618.833,489.5 617.167,489.5 615.5,489.5C 615.5,484.167 615.5,478.833 615.5,473.5C 616.487,478.305 616.821,483.305 616.5,488.5C 617.5,488.5 618.5,488.5 619.5,488.5C 619.5,482.167 619.5,475.833 619.5,469.5 Z"/></g>
<g><path style="opacity:1" fill="#989898" d="M 772.5,468.5 C 773.117,468.611 773.617,468.944 774,469.5C 774.5,476.492 774.666,483.492 774.5,490.5C 772.585,490.784 770.919,490.451 769.5,489.5C 770.833,489.5 772.167,489.5 773.5,489.5C 773.76,482.443 773.427,475.443 772.5,468.5 Z"/></g>
<g><path style="opacity:1" fill="#848484" d="M 508.5,475.5 C 507.542,476.962 506.376,478.295 505,479.5C 504.506,481.134 504.34,482.801 504.5,484.5C 502.417,480.067 503.751,477.067 508.5,475.5 Z"/></g>
<g><path style="opacity:1" fill="#969696" d="M 566.5,471.5 C 565.676,474.764 565.342,478.098 565.5,481.5C 564.362,478.696 564.195,475.696 565,472.5C 565.383,471.944 565.883,471.611 566.5,471.5 Z"/></g>
<g><path style="opacity:1" fill="#5a5a5a" d="M 703.5,470.5 C 702.167,475.167 702.167,479.833 703.5,484.5C 702.883,484.389 702.383,484.056 702,483.5C 701.333,479.5 701.333,475.5 702,471.5C 702.383,470.944 702.883,470.611 703.5,470.5 Z"/></g>
<g><path style="opacity:1" fill="#3f3f3f" d="M 738.5,473.5 C 738.5,478.833 738.5,484.167 738.5,489.5C 736.901,489.768 735.568,489.434 734.5,488.5C 735.5,488.5 736.5,488.5 737.5,488.5C 737.179,483.305 737.513,478.305 738.5,473.5 Z"/></g>
<g><path style="opacity:1" fill="#8e8e8e" d="M 913.5,471.5 C 912.676,474.764 912.342,478.098 912.5,481.5C 911.362,478.696 911.195,475.696 912,472.5C 912.383,471.944 912.883,471.611 913.5,471.5 Z"/></g>
<g><path style="opacity:1" fill="#696969" d="M 520.5,478.5 C 516.766,478.323 513.099,478.656 509.5,479.5C 509.611,478.883 509.944,478.383 510.5,478C 514.027,477.192 517.36,477.359 520.5,478.5 Z"/></g>
<g><path style="opacity:1" fill="#989898" d="M 583.5,470.5 C 574.019,467.976 569.686,471.643 570.5,481.5C 568.016,471.479 572.016,467.312 582.5,469C 583.056,469.383 583.389,469.883 583.5,470.5 Z"/></g>
<g><path style="opacity:1" fill="#8c8c8c" d="M 758.5,470.5 C 756.627,476.924 755.96,483.591 756.5,490.5C 754.585,490.784 752.919,490.451 751.5,489.5C 752.833,489.5 754.167,489.5 755.5,489.5C 755.334,483.824 755.501,478.157 756,472.5C 756.708,471.619 757.542,470.953 758.5,470.5 Z"/></g>
<g><path style="opacity:1" fill="#b0b0b0" d="M 766.5,469.5 C 767.458,469.953 768.292,470.619 769,471.5C 769.499,477.491 769.666,483.491 769.5,489.5C 768.673,484.015 768.173,478.348 768,472.5C 766.961,471.756 766.461,470.756 766.5,469.5 Z"/></g>
<g><path style="opacity:1" fill="#696969" d="M 880.5,478.5 C 876.766,478.323 873.099,478.656 869.5,479.5C 869.611,478.883 869.944,478.383 870.5,478C 874.027,477.192 877.36,477.359 880.5,478.5 Z"/></g>
<g><path style="opacity:1" fill="#9e9e9e" d="M 328.5,475.5 C 330.074,477.102 330.741,479.102 330.5,481.5C 328.926,479.898 328.259,477.898 328.5,475.5 Z"/></g>
<g><path style="opacity:1" fill="#5a5a5a" d="M 598.5,465.5 C 598.5,473.167 598.5,480.833 598.5,488.5C 599.5,488.5 600.5,488.5 601.5,488.5C 601.179,482.974 601.512,477.64 602.5,472.5C 602.5,478.167 602.5,483.833 602.5,489.5C 600.833,489.5 599.167,489.5 597.5,489.5C 597.174,481.316 597.508,473.316 598.5,465.5 Z"/></g>
<g><path style="opacity:1" fill="#e6e6e6" d="M 429.5,478.5 C 433.167,478.5 436.833,478.5 440.5,478.5C 441.042,483.627 438.709,486.294 433.5,486.5C 428.659,485.703 427.326,483.037 429.5,478.5 Z"/></g>
<g><path style="opacity:1" fill="#e6e6e6" d="M 520.5,478.5 C 520.075,485.559 516.408,487.892 509.5,485.5C 508.246,483.357 508.246,481.357 509.5,479.5C 513.099,478.656 516.766,478.323 520.5,478.5 Z"/></g>
<g><path style="opacity:1" fill="#434343" d="M 689.5,473.5 C 688.6,478.772 688.267,484.105 688.5,489.5C 686.901,489.768 685.568,489.434 684.5,488.5C 685.5,488.5 686.5,488.5 687.5,488.5C 687.334,483.821 687.501,479.155 688,474.5C 688.383,473.944 688.883,473.611 689.5,473.5 Z"/></g>
<g><path style="opacity:1" fill="#efefef" d="M 880.5,478.5 C 880.675,480.621 880.341,482.621 879.5,484.5C 876.236,485.324 872.902,485.658 869.5,485.5C 868.258,483.389 868.258,481.389 869.5,479.5C 873.099,478.656 876.766,478.323 880.5,478.5 Z"/></g>
<g><path style="opacity:1" fill="#686868" d="M 962.5,471.5 C 963.49,477.31 963.823,483.31 963.5,489.5C 961.833,489.5 960.167,489.5 958.5,489.5C 958.5,483.833 958.5,478.167 958.5,472.5C 959.488,477.64 959.821,482.974 959.5,488.5C 960.5,488.5 961.5,488.5 962.5,488.5C 962.5,482.833 962.5,477.167 962.5,471.5 Z"/></g>
<g><path style="opacity:1" fill="#525252" d="M 847.5,465.5 C 847.5,473.167 847.5,480.833 847.5,488.5C 848.5,488.5 849.5,488.5 850.5,488.5C 850.182,483.968 850.515,479.634 851.5,475.5C 851.5,480.167 851.5,484.833 851.5,489.5C 849.833,489.5 848.167,489.5 846.5,489.5C 846.174,481.316 846.508,473.316 847.5,465.5 Z"/></g>
<g><path style="opacity:1" fill="#8a8a8a" d="M 866.5,477.5 C 864.215,480.565 863.882,483.898 865.5,487.5C 864.883,487.389 864.383,487.056 864,486.5C 863.333,483.833 863.333,481.167 864,478.5C 864.671,477.748 865.504,477.414 866.5,477.5 Z"/></g>
<g><path style="opacity:1" fill="#4a4a4a" d="M 884.5,469.5 C 885.491,475.979 885.824,482.646 885.5,489.5C 884.167,489.5 882.833,489.5 881.5,489.5C 881.5,488.5 881.5,487.5 881.5,486.5C 882.151,487.091 882.818,487.757 883.5,488.5C 884.496,482.202 884.83,475.868 884.5,469.5 Z"/></g>
<g><path style="opacity:1" fill="#8c8c8c" d="M 381.5,485.5 C 380.551,486.152 379.385,486.486 378,486.5C 375.41,486.055 372.91,485.389 370.5,484.5C 370.5,485.5 370.5,486.5 370.5,487.5C 369.566,486.432 369.232,485.099 369.5,483.5C 373.36,484.644 377.36,485.311 381.5,485.5 Z"/></g>
<g><path style="opacity:1" fill="#b4b4b4" d="M 806.5,480.5 C 809.124,482.198 809.124,484.031 806.5,486C 802.537,487.137 799.204,486.303 796.5,483.5C 799.764,484.324 803.098,484.658 806.5,484.5C 806.5,483.167 806.5,481.833 806.5,480.5 Z"/></g>
<g><path style="opacity:1" fill="#a5a5a5" d="M 818.5,473.5 C 817.74,478.865 819.074,483.532 822.5,487.5C 820.629,487.141 819.129,486.141 818,484.5C 817.19,480.642 817.357,476.976 818.5,473.5 Z"/></g>
<g><path style="opacity:1" fill="#7a7a7a" d="M 485.5,483.5 C 489.715,485.436 494.381,486.103 499.5,485.5C 499.768,487.099 499.434,488.432 498.5,489.5C 498.5,488.5 498.5,487.5 498.5,486.5C 493.833,486.5 489.167,486.5 484.5,486.5C 484.263,485.209 484.596,484.209 485.5,483.5 Z"/></g>
<g><path style="opacity:1" fill="#8f8f8f" d="M 630.5,484.5 C 633.482,484.963 636.482,485.296 639.5,485.5C 638.551,486.152 637.385,486.486 636,486.5C 633.779,486.607 631.946,485.94 630.5,484.5 Z"/></g>
<g><path style="opacity:1" fill="#6a6a6a" d="M 879.5,484.5 C 879.389,485.117 879.056,485.617 878.5,486C 875.304,486.805 872.304,486.638 869.5,485.5C 872.902,485.658 876.236,485.324 879.5,484.5 Z"/></g>
<g><path style="opacity:1" fill="#949494" d="M 387.5,479.5 C 388.152,480.449 388.486,481.615 388.5,483C 388.693,485.008 388.026,486.508 386.5,487.5C 387.265,484.904 387.599,482.237 387.5,479.5 Z"/></g>
<g><path style="opacity:1" fill="#aeaeae" d="M 479.5,483.5 C 478.85,485.435 478.517,487.435 478.5,489.5C 485.167,489.5 491.833,489.5 498.5,489.5C 491.687,490.491 484.687,490.825 477.5,490.5C 477.338,488.473 477.505,486.473 478,484.5C 478.383,483.944 478.883,483.611 479.5,483.5 Z"/></g>
<g><path style="opacity:1" fill="#a5a5a5" d="M 796.5,488.5 C 800.833,489.833 805.167,489.833 809.5,488.5C 807.952,489.794 805.952,490.461 803.5,490.5C 801.5,490.333 799.5,490.167 797.5,490C 796.944,489.617 796.611,489.117 796.5,488.5 Z"/></g>
<g><path style="opacity:1" fill="#000000" d="M -0.5,677.5 C 426.167,677.5 852.833,677.5 1279.5,677.5C 1279.5,691.5 1279.5,705.5 1279.5,719.5C 852.833,719.5 426.167,719.5 -0.5,719.5C -0.5,705.5 -0.5,691.5 -0.5,677.5 Z"/></g>
</svg>
