<?xml version="1.0" encoding="UTF-8"?>
<!DOCTYPE svg PUBLIC "-//W3C//DTD SVG 1.1//EN" "http://www.w3.org/Graphics/SVG/1.1/DTD/svg11.dtd">
<svg xmlns="http://www.w3.org/2000/svg" version="1.1" width="225px" height="225px" style="shape-rendering:geometricPrecision; text-rendering:geometricPrecision; image-rendering:optimizeQuality; fill-rule:evenodd; clip-rule:evenodd" xmlns:xlink="http://www.w3.org/1999/xlink">
<g><path style="opacity:1" fill="#fdfdfe" d="M -0.5,-0.5 C 74.5,-0.5 149.5,-0.5 224.5,-0.5C 224.5,74.5 224.5,149.5 224.5,224.5C 149.5,224.5 74.5,224.5 -0.5,224.5C -0.5,149.5 -0.5,74.5 -0.5,-0.5 Z"/></g>
<g><path style="opacity:1" fill="#13245c" d="M 135.5,17.5 C 171.353,17.2126 195.186,33.8792 207,67.5C 213.379,103.908 200.212,130.408 167.5,147C 138.395,156.888 113.062,151.055 91.5,129.5C 70.9928,140.921 50.3262,152.088 29.5,163C 18.365,165.883 12.0316,161.55 10.5,150C 10.7972,145.691 12.7972,142.357 16.5,140C 37.1667,128.667 57.8333,117.333 78.5,106C 69.6133,73.7797 78.6133,47.7797 105.5,28C 114.925,22.4344 124.925,18.9344 135.5,17.5 Z"/></g>
<g><path style="opacity:1" fill="#fdfdfd" d="M 129.5,23.5 C 162.871,19.9241 186.371,33.2574 200,63.5C 208.321,91.5254 201.488,115.025 179.5,134C 152.971,151.302 126.971,150.636 101.5,132C 78.2135,108.598 74.0469,82.098 89,52.5C 98.7802,37.541 112.28,27.8743 129.5,23.5 Z"/></g>
<g><path style="opacity:1" fill="#0e265c" d="M 142.5,74.5 C 144.167,74.5 145.833,74.5 147.5,74.5C 147.5,96.5 147.5,118.5 147.5,140.5C 145.833,140.5 144.167,140.5 142.5,140.5C 142.5,118.5 142.5,96.5 142.5,74.5 Z"/></g>
<g><path style="opacity:1" fill="#6e7794" d="M 142.5,74.5 C 144.265,73.5386 146.265,73.2053 148.5,73.5C 148.831,96.0062 148.497,118.34 147.5,140.5C 147.5,118.5 147.5,96.5 147.5,74.5C 145.833,74.5 144.167,74.5 142.5,74.5 Z"/></g>
<g><path style="opacity:1" fill="#000d51" d="M 161.5,92.5 C 161.5,106.833 161.5,121.167 161.5,135.5C 162.5,135.5 163.5,135.5 164.5,135.5C 164.5,121.167 164.5,106.833 164.5,92.5C 165.496,106.99 165.829,121.657 165.5,136.5C 163.833,136.5 162.167,136.5 160.5,136.5C 160.171,121.657 160.504,106.99 161.5,92.5 Z"/></g>
<g><path style="opacity:1" fill="#0f275c" d="M 161.5,92.5 C 162.5,92.5 163.5,92.5 164.5,92.5C 164.5,106.833 164.5,121.167 164.5,135.5C 163.5,135.5 162.5,135.5 161.5,135.5C 161.5,121.167 161.5,106.833 161.5,92.5 Z"/></g>
<g><path style="opacity:1" fill="#000850" d="M 179.5,105.5 C 179.5,111.5 179.5,117.5 179.5,123.5C 180.5,123.5 181.5,123.5 182.5,123.5C 182.5,117.5 182.5,111.5 182.5,105.5C 183.49,111.645 183.823,117.978 183.5,124.5C 181.833,124.5 180.167,124.5 178.5,124.5C 178.177,117.978 178.51,111.645 179.5,105.5 Z"/></g>
<g><path style="opacity:1" fill="#0f275d" d="M 179.5,105.5 C 180.5,105.5 181.5,105.5 182.5,105.5C 182.5,111.5 182.5,117.5 182.5,123.5C 181.5,123.5 180.5,123.5 179.5,123.5C 179.5,117.5 179.5,111.5 179.5,105.5 Z"/></g>
<g><path style="opacity:1" fill="#edeef2" d="M 78.5,111.5 C 79.3764,111.369 80.0431,111.702 80.5,112.5C 82.3287,116.828 84.662,120.828 87.5,124.5C 86.485,127.168 84.8183,127.834 82.5,126.5C 80.04,122.414 77.7066,118.247 75.5,114C 76.9423,113.623 77.9423,112.79 78.5,111.5 Z"/></g>
<g><path style="opacity:1" fill="#1f3063" d="M 124.5,115.5 C 126.5,115.5 128.5,115.5 130.5,115.5C 130.5,123.167 130.5,130.833 130.5,138.5C 128.5,138.5 126.5,138.5 124.5,138.5C 124.5,130.833 124.5,123.167 124.5,115.5 Z"/></g>
<g><path style="opacity:1" fill="#f9fafb" d="M 69.5,116.5 C 72.9699,120.51 75.9699,125.01 78.5,130C 61.6604,139.587 44.6604,148.921 27.5,158C 20.5249,160.184 16.5249,157.684 15.5,150.5C 15.8481,148.303 16.8481,146.47 18.5,145C 35.8853,135.979 52.8853,126.479 69.5,116.5 Z"/></g>
<g><path style="opacity:1" fill="#acb1c0" d="M 183.5,146.5 C 184.497,163.992 184.83,181.659 184.5,199.5C 188.167,199.5 191.833,199.5 195.5,199.5C 195.17,182.991 195.504,166.658 196.5,150.5C 196.5,167.167 196.5,183.833 196.5,200.5C 191.968,200.818 187.634,200.485 183.5,199.5C 183.5,181.833 183.5,164.167 183.5,146.5 Z"/></g>
<g><path style="opacity:1" fill="#14285e" d="M 183.5,199.5 C 187.634,200.485 191.968,200.818 196.5,200.5C 196.5,183.833 196.5,167.167 196.5,150.5C 198.167,150.5 199.833,150.5 201.5,150.5C 201.5,167.167 201.5,183.833 201.5,200.5C 204.167,200.5 206.833,200.5 209.5,200.5C 209.784,202.415 209.451,204.081 208.5,205.5C 160.336,204.501 112.003,204.168 63.5,204.5C 63.5,203.5 63.5,202.5 63.5,201.5C 66.3854,201.806 69.0521,201.473 71.5,200.5C 71.5,200.167 71.5,199.833 71.5,199.5C 72.4938,190.014 72.8271,180.348 72.5,170.5C 73.5,170.5 74.5,170.5 75.5,170.5C 75.1729,180.348 75.5062,190.014 76.5,199.5C 80.6344,200.485 84.9677,200.818 89.5,200.5C 89.5,193.833 89.5,187.167 89.5,180.5C 91.1667,180.5 92.8333,180.5 94.5,180.5C 94.5,186.833 94.5,193.167 94.5,199.5C 98.6344,200.485 102.968,200.818 107.5,200.5C 107.5,186.833 107.5,173.167 107.5,159.5C 108.833,159.5 110.167,159.5 111.5,159.5C 111.171,173.344 111.504,187.01 112.5,200.5C 116.5,200.5 120.5,200.5 124.5,200.5C 124.5,185.833 124.5,171.167 124.5,156.5C 126.5,156.5 128.5,156.5 130.5,156.5C 130.5,171.167 130.5,185.833 130.5,200.5C 134.5,200.5 138.5,200.5 142.5,200.5C 142.5,186.167 142.5,171.833 142.5,157.5C 144.5,157.5 146.5,157.5 148.5,157.5C 148.5,171.833 148.5,186.167 148.5,200.5C 152.5,200.5 156.5,200.5 160.5,200.5C 161.496,185.676 161.829,170.676 161.5,155.5C 162.5,155.5 163.5,155.5 164.5,155.5C 164.171,170.676 164.504,185.676 165.5,200.5C 170.032,200.818 174.366,200.485 178.5,199.5C 179.497,182.341 179.83,165.008 179.5,147.5C 180.5,147.5 181.5,147.5 182.5,147.5C 182.17,165.008 182.503,182.341 183.5,199.5 Z"/></g>
<g><path style="opacity:1" fill="#000850" d="M 178.5,146.5 C 180.167,146.5 181.833,146.5 183.5,146.5C 183.5,164.167 183.5,181.833 183.5,199.5C 182.503,182.341 182.17,165.008 182.5,147.5C 181.5,147.5 180.5,147.5 179.5,147.5C 179.83,165.008 179.497,182.341 178.5,199.5C 178.5,181.833 178.5,164.167 178.5,146.5 Z"/></g>
<g><path style="opacity:1" fill="#b2b6c3" d="M 178.5,146.5 C 178.5,164.167 178.5,181.833 178.5,199.5C 174.366,200.485 170.032,200.818 165.5,200.5C 165.5,185.167 165.5,169.833 165.5,154.5C 166.496,169.324 166.829,184.324 166.5,199.5C 170.167,199.5 173.833,199.5 177.5,199.5C 177.17,181.659 177.503,163.992 178.5,146.5 Z"/></g>
<g><path style="opacity:1" fill="#000d51" d="M 165.5,154.5 C 165.5,169.833 165.5,185.167 165.5,200.5C 164.504,185.676 164.171,170.676 164.5,155.5C 163.5,155.5 162.5,155.5 161.5,155.5C 161.829,170.676 161.496,185.676 160.5,200.5C 160.5,185.167 160.5,169.833 160.5,154.5C 162.167,154.5 163.833,154.5 165.5,154.5 Z"/></g>
<g><path style="opacity:1" fill="#9fa3b4" d="M 112.5,158.5 C 110.585,158.216 108.919,158.549 107.5,159.5C 107.5,173.167 107.5,186.833 107.5,200.5C 102.968,200.818 98.6344,200.485 94.5,199.5C 98.5,199.5 102.5,199.5 106.5,199.5C 106.5,185.5 106.5,171.5 106.5,157.5C 108.735,157.205 110.735,157.539 112.5,158.5 Z"/></g>
<g><path style="opacity:1" fill="#00014d" d="M 107.5,159.5 C 108.919,158.549 110.585,158.216 112.5,158.5C 112.5,172.5 112.5,186.5 112.5,200.5C 111.504,187.01 111.171,173.344 111.5,159.5C 110.167,159.5 108.833,159.5 107.5,159.5 Z"/></g>
<g><path style="opacity:1" fill="#00054f" d="M 76.5,169.5 C 76.5,179.5 76.5,189.5 76.5,199.5C 75.5062,190.014 75.1729,180.348 75.5,170.5C 74.5,170.5 73.5,170.5 72.5,170.5C 72.8271,180.348 72.4938,190.014 71.5,199.5C 71.5,189.5 71.5,179.5 71.5,169.5C 73.1667,169.5 74.8333,169.5 76.5,169.5 Z"/></g>
<g><path style="opacity:1" fill="#b0b5c3" d="M 76.5,169.5 C 77.494,179.319 77.8274,189.319 77.5,199.5C 81.1667,199.5 84.8333,199.5 88.5,199.5C 88.1765,192.978 88.5098,186.645 89.5,180.5C 89.5,187.167 89.5,193.833 89.5,200.5C 84.9677,200.818 80.6344,200.485 76.5,199.5C 76.5,189.5 76.5,179.5 76.5,169.5 Z"/></g>
<g><path style="opacity:1" fill="#00014f" d="M 71.5,200.5 C 69.0521,201.473 66.3854,201.806 63.5,201.5C 63.5,202.5 63.5,203.5 63.5,204.5C 112.003,204.168 160.336,204.501 208.5,205.5C 159.833,205.5 111.167,205.5 62.5,205.5C 62.5,203.833 62.5,202.167 62.5,200.5C 65.5,200.5 68.5,200.5 71.5,200.5 Z"/></g>
</svg>
