<?xml version="1.0" encoding="UTF-8"?>
<!DOCTYPE svg PUBLIC "-//W3C//DTD SVG 1.1//EN" "http://www.w3.org/Graphics/SVG/1.1/DTD/svg11.dtd">
<svg xmlns="http://www.w3.org/2000/svg" version="1.1" width="1280px" height="992px" style="shape-rendering:geometricPrecision; text-rendering:geometricPrecision; image-rendering:optimizeQuality; fill-rule:evenodd; clip-rule:evenodd" xmlns:xlink="http://www.w3.org/1999/xlink">
<g><path style="opacity:0.999" fill="#babcc0" d="M 645.5,4.5 C 639.906,5.09252 634.239,5.92586 628.5,7C 420.338,145.248 212.005,283.248 3.5,421C 2.36362,422.145 1.36362,423.312 0.5,424.5C 1.46445,399.748 5.13112,375.415 11.5,351.5C 12.4232,352.303 13.4232,352.47 14.5,352C 184.5,239.333 354.5,126.667 524.5,14C 526.063,13.2411 527.063,12.0744 527.5,10.5C 566.71,6.18838 606.044,4.18838 645.5,4.5 Z"/></g>
<g><path style="opacity:0.999" fill="#b7b9bd" d="M 645.5,4.5 C 680.605,4.72925 715.605,6.72925 750.5,10.5C 750.586,11.4959 750.252,12.3292 749.5,13C 503.662,175.418 257.995,338.085 12.5,501C 11.3636,502.145 10.3636,503.312 9.5,504.5C 3.13622,478.226 0.136224,451.56 0.5,424.5C 1.36362,423.312 2.36362,422.145 3.5,421C 212.005,283.248 420.338,145.248 628.5,7C 634.239,5.92586 639.906,5.09252 645.5,4.5 Z"/></g>
<g><path style="opacity:0.997" fill="#bdbfc2" d="M 527.5,10.5 C 527.063,12.0744 526.063,13.2411 524.5,14C 354.5,126.667 184.5,239.333 14.5,352C 13.4232,352.47 12.4232,352.303 11.5,351.5C 23.3519,311.126 42.0185,274.459 67.5,241.5C 166.13,177.135 264.797,112.135 363.5,46.5C 416.844,29.0289 471.511,17.0289 527.5,10.5 Z"/></g>
<g><path style="opacity:0.996" fill="#b1b3b7" d="M 815.5,21.5 C 850.797,27.6576 885.464,36.3242 919.5,47.5C 857.339,89.4147 795.006,131.081 732.5,172.5C 673.076,172.595 614.409,179.261 556.5,192.5C 555.262,192.19 555.262,191.69 556.5,191C 641.5,134.667 726.5,78.3333 811.5,22C 812.793,21.51 814.127,21.3433 815.5,21.5 Z"/></g>
<g><path style="opacity:0.985" fill="#bfc2c5" d="M 363.5,46.5 C 264.797,112.135 166.13,177.135 67.5,241.5C 92.9217,207.911 122.255,178.078 155.5,152C 218.525,104.986 287.859,69.819 363.5,46.5 Z"/></g>
<g><path style="opacity:0.997" fill="#aeafb4" d="M 919.5,47.5 C 939.631,54.206 959.298,61.8727 978.5,70.5C 925.601,105.774 872.601,140.774 819.5,175.5C 790.557,173.123 761.557,172.123 732.5,172.5C 795.006,131.081 857.339,89.4147 919.5,47.5 Z"/></g>
<g><path style="opacity:0.995" fill="#aaabb0" d="M 978.5,70.5 C 1018.38,86.6032 1056.05,106.603 1091.5,130.5C 1091.06,132.074 1090.06,133.241 1088.5,134C 1052.93,157.275 1017.6,180.775 982.5,204.5C 929.222,189.045 874.889,179.378 819.5,175.5C 872.601,140.774 925.601,105.774 978.5,70.5 Z"/></g>
<g><path style="opacity:0.994" fill="#a4a5aa" d="M 1091.5,130.5 C 1124.8,152.785 1155.14,178.785 1182.5,208.5C 1154.82,226.006 1127.48,244.006 1100.5,262.5C 1064.14,237.323 1024.81,217.989 982.5,204.5C 1017.6,180.775 1052.93,157.275 1088.5,134C 1090.06,133.241 1091.06,132.074 1091.5,130.5 Z"/></g>
<g><path style="opacity:0.993" fill="#9f9fa5" d="M 1182.5,208.5 C 1208.91,236.266 1230.24,267.6 1246.5,302.5C 1222.23,317.439 1198.23,332.772 1174.5,348.5C 1155.96,314.621 1131.29,285.954 1100.5,262.5C 1127.48,244.006 1154.82,226.006 1182.5,208.5 Z"/></g>
<g><path style="opacity:0.998" fill="#2369bd" d="M 814.5,269.5 C 864.5,269.5 914.5,269.5 964.5,269.5C 958.681,270.328 952.681,270.828 946.5,271C 896.529,322.638 846.196,373.972 795.5,425C 808.007,425.169 820.34,425.669 832.5,426.5C 803.833,426.5 775.167,426.5 746.5,426.5C 746.5,440.5 746.5,454.5 746.5,468.5C 745.681,471.305 745.181,474.305 745,477.5C 672.333,551.5 599.667,625.5 527,699.5C 526.5,708.494 526.334,717.494 526.5,726.5C 526.167,726.5 525.833,726.5 525.5,726.5C 525.5,726.167 525.5,725.833 525.5,725.5C 525.5,640.5 525.5,555.5 525.5,470.5C 526.319,473.305 526.819,476.305 527,479.5C 595.167,410 663.333,340.5 731.5,271C 759.336,270.832 787.003,270.332 814.5,269.5 Z"/></g>
<g><path style="opacity:0.996" fill="#2066b9" d="M 964.5,269.5 C 1013.61,272.31 1057.94,287.977 1097.5,316.5C 1097.41,317.496 1097.75,318.329 1098.5,319C 1044.97,374.033 991.299,428.867 937.5,483.5C 936.7,451.2 920.367,432.366 888.5,427C 869.836,426.5 851.17,426.333 832.5,426.5C 820.34,425.669 808.007,425.169 795.5,425C 846.196,373.972 896.529,322.638 946.5,271C 952.681,270.828 958.681,270.328 964.5,269.5 Z"/></g>
<g><path style="opacity:1" fill="#256bc0" d="M 814.5,269.5 C 787.003,270.332 759.336,270.832 731.5,271C 663.333,340.5 595.167,410 527,479.5C 526.819,476.305 526.319,473.305 525.5,470.5C 525.5,403.5 525.5,336.5 525.5,269.5C 621.833,269.5 718.167,269.5 814.5,269.5 Z"/></g>
<g><path style="opacity:0.998" fill="#b4b6ba" d="M 750.5,10.5 C 772.418,13.2083 794.085,16.875 815.5,21.5C 814.127,21.3433 812.793,21.51 811.5,22C 726.5,78.3333 641.5,134.667 556.5,191C 555.262,191.69 555.262,192.19 556.5,192.5C 496.366,207.063 439.699,230.23 386.5,262C 349.663,284.499 318.163,312.999 292,347.5C 284.387,358.399 277.553,369.732 271.5,381.5C 271.103,380.475 270.437,380.308 269.5,381C 187.263,435.275 105.263,489.775 23.5,544.5C 17.8624,531.591 13.1957,518.258 9.5,504.5C 10.3636,503.312 11.3636,502.145 12.5,501C 257.995,338.085 503.662,175.418 749.5,13C 750.252,12.3292 750.586,11.4959 750.5,10.5 Z"/></g>
<g><path style="opacity:0.992" fill="#98989f" d="M 1246.5,302.5 C 1267.98,346.908 1277.98,393.908 1276.5,443.5C 1275.78,443.082 1275.28,442.416 1275,441.5C 1249.89,458.301 1224.72,474.968 1199.5,491.5C 1204.43,441.428 1196.1,393.761 1174.5,348.5C 1198.23,332.772 1222.23,317.439 1246.5,302.5 Z"/></g>
<g><path style="opacity:0.998" fill="#1e64b6" d="M 1097.5,316.5 C 1132.94,345.032 1153.61,382.032 1159.5,427.5C 1155.26,430.228 1151.43,433.561 1148,437.5C 1049.53,538.971 950.696,640.138 851.5,741C 850.906,741.464 850.239,741.631 849.5,741.5C 843.404,734.23 837.07,727.063 830.5,720C 825.344,715.586 819.677,711.919 813.5,709C 790.553,707.542 767.553,707.042 744.5,707.5C 744.5,723.167 744.5,738.833 744.5,754.5C 743.511,777.758 743.177,801.092 743.5,824.5C 689.831,878.835 636.498,933.502 583.5,988.5C 564.167,988.5 544.833,988.5 525.5,988.5C 525.5,950.167 525.5,911.833 525.5,873.5C 526.33,883.325 526.83,893.325 527,903.5C 643.036,784.965 758.869,666.298 874.5,547.5C 894.95,547.022 912.116,539.356 926,524.5C 934.649,512.244 938.482,498.577 937.5,483.5C 991.299,428.867 1044.97,374.033 1098.5,319C 1097.75,318.329 1097.41,317.496 1097.5,316.5 Z"/></g>
<g><path style="opacity:0.997" fill="#b1b3b7" d="M 271.5,381.5 C 255.13,415.719 249.13,451.719 253.5,489.5C 190.005,531.748 126.338,573.748 62.5,615.5C 46.1695,593.853 33.1695,570.187 23.5,544.5C 105.263,489.775 187.263,435.275 269.5,381C 270.437,380.308 271.103,380.475 271.5,381.5 Z"/></g>
<g><path style="opacity:0.997" fill="#1b61b2" d="M 1159.5,427.5 C 1166.41,471.189 1161.25,513.523 1144,554.5C 1127.1,589.733 1101.6,616.9 1067.5,636C 1038.88,651.54 1008.54,661.874 976.5,667C 1001.22,673.87 1024.55,683.703 1046.5,696.5C 1054.03,701.517 1060.86,707.517 1067,714.5C 1072.33,721.829 1077.17,729.496 1081.5,737.5C 1081.96,738.298 1082.62,738.631 1083.5,738.5C 1100.83,768.5 1118.17,798.5 1135.5,828.5C 1126.92,835.574 1118.75,843.24 1111,851.5C 1068.33,896.005 1025.16,940.005 981.5,983.5C 952.833,930.167 924.167,876.833 895.5,823.5C 886.64,805.437 877.473,787.437 868,769.5C 863.638,762.086 858.804,755.086 853.5,748.5C 851.902,746.302 850.569,743.969 849.5,741.5C 850.239,741.631 850.906,741.464 851.5,741C 950.696,640.138 1049.53,538.971 1148,437.5C 1151.43,433.561 1155.26,430.228 1159.5,427.5 Z"/></g>
<g><path style="opacity:0.989" fill="#919198" d="M 1276.5,443.5 C 1272.88,501.186 1255.38,554.186 1224,602.5C 1186.42,657.583 1139.59,702.916 1083.5,738.5C 1082.62,738.631 1081.96,738.298 1081.5,737.5C 1077.17,729.496 1072.33,721.829 1067,714.5C 1060.86,707.517 1054.03,701.517 1046.5,696.5C 1099.33,672.316 1140.83,635.316 1171,585.5C 1186.65,556.036 1196.15,524.703 1199.5,491.5C 1224.72,474.968 1249.89,458.301 1275,441.5C 1275.28,442.416 1275.78,443.082 1276.5,443.5 Z"/></g>
<g><path style="opacity:0.999" fill="#2066b9" d="M 746.5,468.5 C 746.5,494.833 746.5,521.167 746.5,547.5C 789.167,547.5 831.833,547.5 874.5,547.5C 758.869,666.298 643.036,784.965 527,903.5C 526.83,893.325 526.33,883.325 525.5,873.5C 525.5,866.5 525.5,859.5 525.5,852.5C 526.499,810.67 526.832,768.67 526.5,726.5C 526.334,717.494 526.5,708.494 527,699.5C 599.667,625.5 672.333,551.5 745,477.5C 745.181,474.305 745.681,471.305 746.5,468.5 Z"/></g>
<g><path style="opacity:0.998" fill="#aeafb4" d="M 253.5,489.5 C 256.795,507.057 262.129,524.057 269.5,540.5C 211.463,578.847 153.463,617.18 95.5,655.5C 83.0198,643.356 72.0198,630.023 62.5,615.5C 126.338,573.748 190.005,531.748 253.5,489.5 Z"/></g>
<g><path style="opacity:0.997" fill="#aaabb0" d="M 269.5,540.5 C 280.598,565.033 295.431,587.033 314,606.5C 322.062,614.73 330.228,622.73 338.5,630.5C 287.291,664.265 236.291,698.265 185.5,732.5C 152.029,711.067 122.029,685.4 95.5,655.5C 153.463,617.18 211.463,578.847 269.5,540.5 Z"/></g>
<g><path style="opacity:0.997" fill="#a4a5aa" d="M 338.5,630.5 C 370.937,656.894 406.271,678.894 444.5,696.5C 396.382,728.111 348.382,759.944 300.5,792C 299.552,792.483 298.552,792.649 297.5,792.5C 257.752,776.632 220.419,756.632 185.5,732.5C 236.291,698.265 287.291,664.265 338.5,630.5 Z"/></g>
<g><path style="opacity:0.996" fill="#9f9fa5" d="M 444.5,696.5 C 470.768,708.13 497.768,717.797 525.5,725.5C 525.5,725.833 525.5,726.167 525.5,726.5C 525.667,741.17 525.5,755.837 525,770.5C 493.586,791.458 462.086,812.291 430.5,833C 429.748,833.671 429.414,834.504 429.5,835.5C 383.955,825.54 339.955,811.206 297.5,792.5C 298.552,792.649 299.552,792.483 300.5,792C 348.382,759.944 396.382,728.111 444.5,696.5 Z"/></g>
<g><path style="opacity:0.994" fill="#93939a" d="M 853.5,748.5 C 858.804,755.086 863.638,762.086 868,769.5C 877.473,787.437 886.64,805.437 895.5,823.5C 845.996,837.601 795.663,847.601 744.5,853.5C 743.506,844.014 743.173,834.348 743.5,824.5C 743.177,801.092 743.511,777.758 744.5,754.5C 780.976,754.825 817.309,752.825 853.5,748.5 Z"/></g>
<g><path style="opacity:0.992" fill="#9a9ba1" d="M 525.5,726.5 C 525.833,726.5 526.167,726.5 526.5,726.5C 526.832,768.67 526.499,810.67 525.5,852.5C 493.121,848.771 461.121,843.104 429.5,835.5C 429.414,834.504 429.748,833.671 430.5,833C 462.086,812.291 493.586,791.458 525,770.5C 525.5,755.837 525.667,741.17 525.5,726.5 Z"/></g>
<g><path style="opacity:0.986" fill="#1d63b4" d="M 743.5,824.5 C 743.173,834.348 743.506,844.014 744.5,853.5C 744.5,898.5 744.5,943.5 744.5,988.5C 690.833,988.5 637.167,988.5 583.5,988.5C 636.498,933.502 689.831,878.835 743.5,824.5 Z"/></g>
<g><path style="opacity:0.99" fill="#185eac" d="M 1135.5,828.5 C 1167.39,881.271 1199.06,934.271 1230.5,987.5C 1148.17,988.667 1065.84,988.833 983.5,988C 982.418,986.67 981.751,985.17 981.5,983.5C 1025.16,940.005 1068.33,896.005 1111,851.5C 1118.75,843.24 1126.92,835.574 1135.5,828.5 Z"/></g>
</svg>
