<?xml version="1.0" encoding="UTF-8"?>
<!DOCTYPE svg PUBLIC "-//W3C//DTD SVG 1.1//EN" "http://www.w3.org/Graphics/SVG/1.1/DTD/svg11.dtd">
<svg xmlns="http://www.w3.org/2000/svg" version="1.1" width="512px" height="512px" style="shape-rendering:geometricPrecision; text-rendering:geometricPrecision; image-rendering:optimizeQuality; fill-rule:evenodd; clip-rule:evenodd" xmlns:xlink="http://www.w3.org/1999/xlink">
<g><path style="opacity:0.999" fill="#86a4be" d="M 479.5,66.5 C 330.167,66.5 180.833,66.5 31.5,66.5C 30.3766,57.3146 31.8766,48.6479 36,40.5C 39.7205,36.4495 44.2205,33.6162 49.5,32C 186.833,31.3333 324.167,31.3333 461.5,32C 470.667,34.5 476.5,40.3333 479,49.5C 479.499,55.1569 479.666,60.8236 479.5,66.5 Z"/></g>
<g><path style="opacity:1" fill="#83a2bb" d="M 31.5,66.5 C 180.833,66.5 330.167,66.5 479.5,66.5C 479.5,68.5 479.5,70.5 479.5,72.5C 330.167,72.5 180.833,72.5 31.5,72.5C 31.5,70.5 31.5,68.5 31.5,66.5 Z"/></g>
<g><path style="opacity:1" fill="#809fb9" d="M 31.5,72.5 C 180.833,72.5 330.167,72.5 479.5,72.5C 479.5,84.8333 479.5,97.1667 479.5,109.5C 458.833,109.5 438.167,109.5 417.5,109.5C 417.5,120.833 417.5,132.167 417.5,143.5C 417.5,152.167 417.5,160.833 417.5,169.5C 417.823,175.69 417.49,181.69 416.5,187.5C 416.5,157.167 416.5,126.833 416.5,96.5C 386.005,95.5019 355.338,95.1685 324.5,95.5C 324.5,100.167 324.5,104.833 324.5,109.5C 317.167,109.5 309.833,109.5 302.5,109.5C 302.5,104.833 302.5,100.167 302.5,95.5C 271.662,95.1685 240.995,95.5019 210.5,96.5C 210.5,126.833 210.5,157.167 210.5,187.5C 209.51,181.69 209.177,175.69 209.5,169.5C 209.5,160.833 209.5,152.167 209.5,143.5C 209.5,132.167 209.5,120.833 209.5,109.5C 150.167,109.5 90.8333,109.5 31.5,109.5C 31.5,97.1667 31.5,84.8333 31.5,72.5 Z"/></g>
<g><path style="opacity:1" fill="#fefffe" d="M 210.5,96.5 C 240.833,96.5 271.167,96.5 301.5,96.5C 301.5,126.833 301.5,157.167 301.5,187.5C 271.167,187.5 240.833,187.5 210.5,187.5C 210.5,157.167 210.5,126.833 210.5,96.5 Z"/></g>
<g><path style="opacity:1" fill="#e5ecf1" d="M 210.5,96.5 C 240.995,95.5019 271.662,95.1685 302.5,95.5C 302.5,100.167 302.5,104.833 302.5,109.5C 302.5,129.5 302.5,149.5 302.5,169.5C 302.823,175.69 302.49,181.69 301.5,187.5C 301.5,157.167 301.5,126.833 301.5,96.5C 271.167,96.5 240.833,96.5 210.5,96.5 Z"/></g>
<g><path style="opacity:1" fill="#e1e8ef" d="M 416.5,96.5 C 386.167,96.5 355.833,96.5 325.5,96.5C 325.5,126.833 325.5,157.167 325.5,187.5C 324.51,181.69 324.177,175.69 324.5,169.5C 324.5,149.5 324.5,129.5 324.5,109.5C 324.5,104.833 324.5,100.167 324.5,95.5C 355.338,95.1685 386.005,95.5019 416.5,96.5 Z"/></g>
<g><path style="opacity:1" fill="#fefffe" d="M 416.5,96.5 C 416.5,126.833 416.5,157.167 416.5,187.5C 386.167,187.5 355.833,187.5 325.5,187.5C 325.5,157.167 325.5,126.833 325.5,96.5C 355.833,96.5 386.167,96.5 416.5,96.5 Z"/></g>
<g><path style="opacity:1" fill="#789ab5" d="M 31.5,109.5 C 90.8333,109.5 150.167,109.5 209.5,109.5C 209.5,120.833 209.5,132.167 209.5,143.5C 150.167,143.5 90.8333,143.5 31.5,143.5C 31.5,132.167 31.5,120.833 31.5,109.5 Z"/></g>
<g><path style="opacity:1" fill="#789ab5" d="M 479.5,109.5 C 479.5,120.833 479.5,132.167 479.5,143.5C 458.833,143.5 438.167,143.5 417.5,143.5C 417.5,132.167 417.5,120.833 417.5,109.5C 438.167,109.5 458.833,109.5 479.5,109.5 Z"/></g>
<g><path style="opacity:1" fill="#7497b2" d="M 31.5,143.5 C 90.8333,143.5 150.167,143.5 209.5,143.5C 209.5,152.167 209.5,160.833 209.5,169.5C 150.167,169.5 90.8333,169.5 31.5,169.5C 31.5,160.833 31.5,152.167 31.5,143.5 Z"/></g>
<g><path style="opacity:1" fill="#7598b3" d="M 302.5,109.5 C 309.833,109.5 317.167,109.5 324.5,109.5C 324.5,129.5 324.5,149.5 324.5,169.5C 317.167,169.5 309.833,169.5 302.5,169.5C 302.5,149.5 302.5,129.5 302.5,109.5 Z"/></g>
<g><path style="opacity:1" fill="#7497b2" d="M 417.5,143.5 C 438.167,143.5 458.833,143.5 479.5,143.5C 479.5,152.167 479.5,160.833 479.5,169.5C 458.833,169.5 438.167,169.5 417.5,169.5C 417.5,160.833 417.5,152.167 417.5,143.5 Z"/></g>
<g><path style="opacity:1" fill="#7194b0" d="M 31.5,169.5 C 90.8333,169.5 150.167,169.5 209.5,169.5C 209.177,175.69 209.51,181.69 210.5,187.5C 240.833,187.5 271.167,187.5 301.5,187.5C 302.49,181.69 302.823,175.69 302.5,169.5C 309.833,169.5 317.167,169.5 324.5,169.5C 324.177,175.69 324.51,181.69 325.5,187.5C 355.833,187.5 386.167,187.5 416.5,187.5C 417.49,181.69 417.823,175.69 417.5,169.5C 438.167,169.5 458.833,169.5 479.5,169.5C 479.5,176.833 479.5,184.167 479.5,191.5C 330.167,191.5 180.833,191.5 31.5,191.5C 31.5,184.167 31.5,176.833 31.5,169.5 Z"/></g>
<g><path style="opacity:1" fill="#6d92ad" d="M 31.5,191.5 C 180.833,191.5 330.167,191.5 479.5,191.5C 479.5,199.833 479.5,208.167 479.5,216.5C 458.833,216.5 438.167,216.5 417.5,216.5C 417.5,226.5 417.5,236.5 417.5,246.5C 417.5,260.167 417.5,273.833 417.5,287.5C 417.821,292.695 417.487,297.695 416.5,302.5C 416.5,302.167 416.5,301.833 416.5,301.5C 416.5,271.167 416.5,240.833 416.5,210.5C 386.167,210.5 355.833,210.5 325.5,210.5C 324.505,222.322 324.172,234.322 324.5,246.5C 317.167,246.5 309.833,246.5 302.5,246.5C 302.828,234.322 302.495,222.322 301.5,210.5C 271.167,210.5 240.833,210.5 210.5,210.5C 210.5,240.833 210.5,271.167 210.5,301.5C 210.5,301.833 210.5,302.167 210.5,302.5C 209.503,284.007 209.17,265.341 209.5,246.5C 202.5,246.5 195.5,246.5 188.5,246.5C 188.83,265.341 188.497,284.007 187.5,302.5C 187.5,302.167 187.5,301.833 187.5,301.5C 187.5,271.167 187.5,240.833 187.5,210.5C 157.167,210.5 126.833,210.5 96.5,210.5C 95.5386,212.265 95.2053,214.265 95.5,216.5C 74.1667,216.5 52.8333,216.5 31.5,216.5C 31.5,208.167 31.5,199.833 31.5,191.5 Z"/></g>
<g><path style="opacity:1" fill="#fefffe" d="M 96.5,210.5 C 126.833,210.5 157.167,210.5 187.5,210.5C 187.5,240.833 187.5,271.167 187.5,301.5C 157.167,301.5 126.833,301.5 96.5,301.5C 96.5,271.167 96.5,240.833 96.5,210.5 Z"/></g>
<g><path style="opacity:1" fill="#fefffe" d="M 301.5,210.5 C 301.5,240.833 301.5,271.167 301.5,301.5C 271.167,301.5 240.833,301.5 210.5,301.5C 210.5,271.167 210.5,240.833 210.5,210.5C 240.833,210.5 271.167,210.5 301.5,210.5 Z"/></g>
<g><path style="opacity:1" fill="#fefffe" d="M 325.5,210.5 C 355.833,210.5 386.167,210.5 416.5,210.5C 416.5,240.833 416.5,271.167 416.5,301.5C 386.167,301.5 355.833,301.5 325.5,301.5C 325.5,271.167 325.5,240.833 325.5,210.5 Z"/></g>
<g><path style="opacity:1" fill="#678daa" d="M 31.5,216.5 C 52.8333,216.5 74.1667,216.5 95.5,216.5C 95.5,226.5 95.5,236.5 95.5,246.5C 74.1667,246.5 52.8333,246.5 31.5,246.5C 31.5,236.5 31.5,226.5 31.5,216.5 Z"/></g>
<g><path style="opacity:1" fill="#678daa" d="M 479.5,216.5 C 479.5,226.5 479.5,236.5 479.5,246.5C 458.833,246.5 438.167,246.5 417.5,246.5C 417.5,236.5 417.5,226.5 417.5,216.5C 438.167,216.5 458.833,216.5 479.5,216.5 Z"/></g>
<g><path style="opacity:1" fill="#6088a5" d="M 31.5,246.5 C 52.8333,246.5 74.1667,246.5 95.5,246.5C 95.5,260.167 95.5,273.833 95.5,287.5C 74.1667,287.5 52.8333,287.5 31.5,287.5C 31.5,273.833 31.5,260.167 31.5,246.5 Z"/></g>
<g><path style="opacity:1" fill="#6088a5" d="M 417.5,246.5 C 438.167,246.5 458.833,246.5 479.5,246.5C 479.5,260.167 479.5,273.833 479.5,287.5C 458.833,287.5 438.167,287.5 417.5,287.5C 417.5,273.833 417.5,260.167 417.5,246.5 Z"/></g>
<g><path style="opacity:1" fill="#5c85a3" d="M 210.5,302.5 C 241.167,302.5 271.833,302.5 302.5,302.5C 302.5,283.833 302.5,265.167 302.5,246.5C 309.833,246.5 317.167,246.5 324.5,246.5C 324.5,265.167 324.5,283.833 324.5,302.5C 355.167,302.5 385.833,302.5 416.5,302.5C 417.487,297.695 417.821,292.695 417.5,287.5C 438.167,287.5 458.833,287.5 479.5,287.5C 479.5,295.167 479.5,302.833 479.5,310.5C 330.167,310.5 180.833,310.5 31.5,310.5C 31.5,302.833 31.5,295.167 31.5,287.5C 52.8333,287.5 74.1667,287.5 95.5,287.5C 95.5,292.5 95.5,297.5 95.5,302.5C 126.167,302.5 156.833,302.5 187.5,302.5C 188.497,284.007 188.83,265.341 188.5,246.5C 195.5,246.5 202.5,246.5 209.5,246.5C 209.17,265.341 209.503,284.007 210.5,302.5 Z"/></g>
<g><path style="opacity:1" fill="#e0e8ee" d="M 96.5,210.5 C 96.5,240.833 96.5,271.167 96.5,301.5C 126.833,301.5 157.167,301.5 187.5,301.5C 187.5,301.833 187.5,302.167 187.5,302.5C 156.833,302.5 126.167,302.5 95.5,302.5C 95.5,297.5 95.5,292.5 95.5,287.5C 95.5,273.833 95.5,260.167 95.5,246.5C 95.5,236.5 95.5,226.5 95.5,216.5C 95.2053,214.265 95.5386,212.265 96.5,210.5 Z"/></g>
<g><path style="opacity:1" fill="#e4ebf0" d="M 301.5,210.5 C 302.495,222.322 302.828,234.322 302.5,246.5C 302.5,265.167 302.5,283.833 302.5,302.5C 271.833,302.5 241.167,302.5 210.5,302.5C 210.5,302.167 210.5,301.833 210.5,301.5C 240.833,301.5 271.167,301.5 301.5,301.5C 301.5,271.167 301.5,240.833 301.5,210.5 Z"/></g>
<g><path style="opacity:1" fill="#e1e9ee" d="M 325.5,210.5 C 325.5,240.833 325.5,271.167 325.5,301.5C 355.833,301.5 386.167,301.5 416.5,301.5C 416.5,301.833 416.5,302.167 416.5,302.5C 385.833,302.5 355.167,302.5 324.5,302.5C 324.5,283.833 324.5,265.167 324.5,246.5C 324.172,234.322 324.505,222.322 325.5,210.5 Z"/></g>
<g><path style="opacity:1" fill="#5882a0" d="M 31.5,310.5 C 180.833,310.5 330.167,310.5 479.5,310.5C 479.5,314.167 479.5,317.833 479.5,321.5C 330.167,321.5 180.833,321.5 31.5,321.5C 31.5,317.833 31.5,314.167 31.5,310.5 Z"/></g>
<g><path style="opacity:1" fill="#55809e" d="M 31.5,321.5 C 180.833,321.5 330.167,321.5 479.5,321.5C 479.5,333.167 479.5,344.833 479.5,356.5C 420.5,356.5 361.5,356.5 302.5,356.5C 302.5,345.833 302.5,335.167 302.5,324.5C 271.662,324.169 240.995,324.502 210.5,325.5C 210.5,355.833 210.5,386.167 210.5,416.5C 209.509,410.021 209.176,403.354 209.5,396.5C 209.5,383.167 209.5,369.833 209.5,356.5C 202.5,356.5 195.5,356.5 188.5,356.5C 188.5,369.833 188.5,383.167 188.5,396.5C 188.824,403.354 188.491,410.021 187.5,416.5C 187.5,386.167 187.5,355.833 187.5,325.5C 157.005,324.502 126.338,324.169 95.5,324.5C 95.5,335.167 95.5,345.833 95.5,356.5C 74.1667,356.5 52.8333,356.5 31.5,356.5C 31.5,344.833 31.5,333.167 31.5,321.5 Z"/></g>
<g><path style="opacity:1" fill="#fefffe" d="M 187.5,325.5 C 187.5,355.833 187.5,386.167 187.5,416.5C 157.167,416.5 126.833,416.5 96.5,416.5C 96.5,386.167 96.5,355.833 96.5,325.5C 126.833,325.5 157.167,325.5 187.5,325.5 Z"/></g>
<g><path style="opacity:1" fill="#fefffe" d="M 210.5,325.5 C 240.833,325.5 271.167,325.5 301.5,325.5C 301.5,355.833 301.5,386.167 301.5,416.5C 271.167,416.5 240.833,416.5 210.5,416.5C 210.5,386.167 210.5,355.833 210.5,325.5 Z"/></g>
<g><path style="opacity:1" fill="#dfe7ed" d="M 210.5,325.5 C 240.995,324.502 271.662,324.169 302.5,324.5C 302.5,335.167 302.5,345.833 302.5,356.5C 302.5,369.833 302.5,383.167 302.5,396.5C 302.824,403.354 302.491,410.021 301.5,416.5C 301.5,386.167 301.5,355.833 301.5,325.5C 271.167,325.5 240.833,325.5 210.5,325.5 Z"/></g>
<g><path style="opacity:1" fill="#4d7b9a" d="M 31.5,356.5 C 52.8333,356.5 74.1667,356.5 95.5,356.5C 95.5,369.833 95.5,383.167 95.5,396.5C 74.1667,396.5 52.8333,396.5 31.5,396.5C 31.5,383.167 31.5,369.833 31.5,356.5 Z"/></g>
<g><path style="opacity:1" fill="#d7e1e8" d="M 187.5,325.5 C 157.167,325.5 126.833,325.5 96.5,325.5C 96.5,355.833 96.5,386.167 96.5,416.5C 95.5093,410.021 95.176,403.354 95.5,396.5C 95.5,383.167 95.5,369.833 95.5,356.5C 95.5,345.833 95.5,335.167 95.5,324.5C 126.338,324.169 157.005,324.502 187.5,325.5 Z"/></g>
<g><path style="opacity:1" fill="#4d7b9a" d="M 209.5,396.5 C 202.5,396.5 195.5,396.5 188.5,396.5C 188.5,383.167 188.5,369.833 188.5,356.5C 195.5,356.5 202.5,356.5 209.5,356.5C 209.5,369.833 209.5,383.167 209.5,396.5 Z"/></g>
<g><path style="opacity:1" fill="#4d7b9a" d="M 302.5,356.5 C 361.5,356.5 420.5,356.5 479.5,356.5C 479.5,369.833 479.5,383.167 479.5,396.5C 420.5,396.5 361.5,396.5 302.5,396.5C 302.5,383.167 302.5,369.833 302.5,356.5 Z"/></g>
<g><path style="opacity:1" fill="#497797" d="M 31.5,396.5 C 52.8333,396.5 74.1667,396.5 95.5,396.5C 95.176,403.354 95.5093,410.021 96.5,416.5C 126.833,416.5 157.167,416.5 187.5,416.5C 188.491,410.021 188.824,403.354 188.5,396.5C 195.5,396.5 202.5,396.5 209.5,396.5C 209.176,403.354 209.509,410.021 210.5,416.5C 240.833,416.5 271.167,416.5 301.5,416.5C 302.491,410.021 302.824,403.354 302.5,396.5C 361.5,396.5 420.5,396.5 479.5,396.5C 479.5,404.5 479.5,412.5 479.5,420.5C 330.167,420.5 180.833,420.5 31.5,420.5C 31.5,412.5 31.5,404.5 31.5,396.5 Z"/></g>
<g><path style="opacity:1" fill="#457494" d="M 31.5,420.5 C 180.833,420.5 330.167,420.5 479.5,420.5C 479.5,423.833 479.5,427.167 479.5,430.5C 330.167,430.5 180.833,430.5 31.5,430.5C 31.5,427.167 31.5,423.833 31.5,420.5 Z"/></g>
<g><path style="opacity:1" fill="#427292" d="M 31.5,430.5 C 180.833,430.5 330.167,430.5 479.5,430.5C 479.5,440.167 479.5,449.833 479.5,459.5C 330.167,459.5 180.833,459.5 31.5,459.5C 31.5,449.833 31.5,440.167 31.5,430.5 Z"/></g>
<g><path style="opacity:0.998" fill="#3d6f90" d="M 31.5,459.5 C 180.833,459.5 330.167,459.5 479.5,459.5C 477.493,469.674 471.493,476.174 461.5,479C 324.167,479.667 186.833,479.667 49.5,479C 39.5067,476.174 33.5067,469.674 31.5,459.5 Z"/></g>
</svg>
